<mxfile host="app.diagrams.net" agent="Mozilla/5.0 (Windows NT 10.0; Win64; x64) AppleWebKit/537.36 (KHTML, like Gecko) Chrome/135.0.0.0 Safari/537.36 Edg/135.0.0.0" version="26.2.14">
  <diagram id="f106602c-feb2-e66a-4537-3a34d633f6aa" name="Page-1">
    <mxGraphModel dx="2527" dy="721" grid="1" gridSize="10" guides="1" tooltips="1" connect="1" arrows="1" fold="1" page="1" pageScale="1" pageWidth="1169" pageHeight="827" background="none" math="0" shadow="0">
      <root>
        <mxCell id="0" />
        <mxCell id="1" parent="0" />
        <mxCell id="Lif8JBEafslfNm7ranTe-1" value="&lt;b&gt;Google &lt;/b&gt;Cloud Platform" style="fillColor=#F6F6F6;strokeColor=none;shadow=0;gradientColor=none;fontSize=14;align=left;spacing=10;fontColor=#717171;9E9E9E;verticalAlign=top;spacingTop=-4;fontStyle=0;spacingLeft=40;html=1;" parent="1" vertex="1">
          <mxGeometry x="90" y="470.2" width="910" height="319.52" as="geometry" />
        </mxCell>
        <mxCell id="Lif8JBEafslfNm7ranTe-2" value="" style="shape=mxgraph.gcp2.google_cloud_platform;fillColor=#F6F6F6;strokeColor=none;shadow=0;gradientColor=none;" parent="Lif8JBEafslfNm7ranTe-1" vertex="1">
          <mxGeometry width="23" height="20" relative="1" as="geometry">
            <mxPoint x="20" y="10" as="offset" />
          </mxGeometry>
        </mxCell>
        <mxCell id="fcTcvbIOMBe-Im9oTsyQ-10" value="Looker" style="sketch=0;html=1;verticalAlign=top;labelPosition=center;verticalLabelPosition=bottom;align=center;spacingTop=-6;fontSize=11;fontStyle=1;fontColor=#999999;shape=image;aspect=fixed;imageAspect=0;image=data:image/svg+xml,PHN2ZyB4bWxucz0iaHR0cDovL3d3dy53My5vcmcvMjAwMC9zdmciIGlkPSJzdmc4OTgwMSIgdmVyc2lvbj0iMS4xIiB2aWV3Qm94PSIwIDAgMjA4LjA1NjU1IDMzNC42MTMxNiIgaGVpZ2h0PSIzMzQuNjEzMTZtbSIgd2lkdGg9IjIwOC4wNTY1NW1tIj4mI3hhOyAgJiN4YTsgIDxkZWZzIGlkPSJkZWZzODk3OTgiLz4mI3hhOyAgPGcgdHJhbnNmb3JtPSJ0cmFuc2xhdGUoLTQuMjQ2MjUyNCwxNS42NzE5MTEpIiBpZD0ibGF5ZXIxIj4mI3hhOyAgICA8cGF0aCBpZD0icGF0aDkxODAyIiB0cmFuc2Zvcm09InNjYWxlKDAuMjY0NTgzMzMpIiBkPSJtIDQwOS4yMjI2Niw0MTkuMDk5NjEgYyAtMzYuNjA4MTEsMCAtNzIuMDc2NjcsNS4wNzUzIC0xMDUuNzUzOTEsMTQuNTMxMjUgbCA0OS4wMzUxNiwxMjAuMDQxMDIgYyAxOC4yNjE3MiwtMy45Mzg5OSAzNy4yMjE5NiwtNi4wNjgzNiA1Ni43MTg3NSwtNi4wNjgzNiAxNDYuOTM1MTQsMCAyNjQuNjc3NzMsMTE3LjczNDc3IDI2NC42Nzc3MywyNjQuNjY5OTIgMCwxNDYuOTM1MTQgLTExNy43NDI1OSwyNjQuNjY5OTYgLTI2NC42Nzc3MywyNjQuNjY5OTYgLTE0Ni45MzUxNiwwIC0yNjQuNjY5OTEsLTExNy43MzQ4MiAtMjY0LjY2OTkzLC0yNjQuNjY5OTYgMCwtOTkuMTg3NjMgNTMuNjg5ODMsLTE4NS4wMDU5NiAxMzMuNzU1ODYsLTIzMC4zNDc2NiBMIDIyOS42MjY5NSw0NjIuNzUgQyAxMDMuMDI0Nyw1MjguMjI0NzQgMTYuMDQ4ODI3LDY2MC41MDUyMyAxNi4wNDg4MjgsODEyLjI3MzQ0IGMgMi4zZS01LDIxNi4zODM3NiAxNzYuNzkwMDYyLDM5My4xNzM4NiAzOTMuMTczODMyLDM5My4xNzM4NiAyMTYuMzgzNzMsMCAzOTMuMTgxNjQsLTE3Ni43OTAxIDM5My4xODE2NCwtMzkzLjE3Mzg2IDNlLTUsLTIxNi4zODM3OCAtMTc2Ljc5Nzg3LC0zOTMuMTczODMgLTM5My4xODE2NCwtMzkzLjE3MzgzIHoiIHN0eWxlPSJjb2xvcjojMDAwMDAwO29wYWNpdHk6MTtmaWxsOiM1OTg2ZjI7ZmlsbC1vcGFjaXR5OjE7c3Ryb2tlLXdpZHRoOjMuNzc5NTM7c3Ryb2tlLWxpbmVqb2luOnJvdW5kOy1pbmtzY2FwZS1zdHJva2U6bm9uZSIvPiYjeGE7ICAgIDxwYXRoIGQ9Im0gMTg5Ljk0MzM2LDg2LjI1IGMgLTk1LjEzMDMzMSwwIC0xNzMuMTc5Njg4LDc4LjA1NTIyIC0xNzMuMTc5Njg4LDE3My4xODU1NSAtNmUtNiw5NS4xMzAzMyA3OC4wNDkzNTMsMTczLjE3OTY4IDE3My4xNzk2ODgsMTczLjE3OTY4IDkuMDE2MTgsMCAxNy44NzU4LC0wLjcwODMyIDI2LjUzMzIsLTIuMDU4NTkgbCAtMzQuODI4MTIsLTg1LjI2NTYyIGMgLTQ0LjE1NzMsLTQuMDg2NjkgLTc3Ljk1NTA4LC00MC41MDcwNSAtNzcuOTU1MDgsLTg1Ljg1NTQ3IDAsLTQ4LjE1MDM5IDM4LjA5OTYyLC04Ni4yNTU4NiA4Ni4yNSwtODYuMjU1ODYgMTMuMTU5NzcsMCAyNS41NTg4OCwyLjg2MjQ2IDM2LjY0NDUzLDcuOTgyNDIgbCA2NC41NTQ2OSwtNjEuOTE5OTIgQyAyNjIuNjA4MzcsOTguNTMzOTEgMjI3LjYyOTI5LDg2LjI1IDE4OS45NDMzNiw4Ni4yNSBaIG0gMTM4Ljg4ODY3LDcwLjE2MjExIC02My40Mjc3Myw2MC44MzU5NCBjIDYuODc2MzgsMTIuNDI2NzggMTAuNzg5MDYsMjYuNzg4MTUgMTAuNzg5MDYsNDIuMTg3NSAwLDIxLjc2NzEyIC03LjgwNDE1LDQxLjQ2NTQgLTIwLjc4NTE2LDU2LjUzMzIgbCAzNC41MjM0NCw4NC41MTk1MyBjIDQ0LjE3Mzg3LC0zMS40ODc1MSA3My4xOTE0MSwtODMuMDc4OTIgNzMuMTkxNDEsLTE0MS4wNTI3MyAwLC0zOC40ODM1NSAtMTIuNzgyLC03NC4xNjUzMiAtMzQuMjkxMDIsLTEwMy4wMjM0NCB6IiB0cmFuc2Zvcm09InNjYWxlKDAuMjY0NTgzMzMpIiBzdHlsZT0iY29sb3I6IzAwMDAwMDtvcGFjaXR5OjE7ZmlsbDojNmY5OGY0O2ZpbGwtb3BhY2l0eToxO3N0cm9rZS13aWR0aDozLjc3OTUzO3N0cm9rZS1saW5lam9pbjpyb3VuZDstaW5rc2NhcGUtc3Ryb2tlOm5vbmUiIGlkPSJwYXRoOTE3OTgiLz4mI3hhOyAgICA8cGF0aCBpZD0icGF0aDg5OTI4IiB0cmFuc2Zvcm09InNjYWxlKDAuMjY0NTgzMzMpIiBkPSJtIDQwNi4xMzY3MiwtNTkuMjMyNDIyIGMgLTU4LjgxNTQ3LDhlLTYgLTEwNy4xMDM1Miw0OC4yODgwNDUgLTEwNy4xMDM1MiwxMDcuMTAzNTE2IDAsMTguNDk0NDUxIDQuNzgxMDEsMzUuOTQ1MDE3IDEzLjE1NjI1LDUxLjE4MzU5NCBsIDQ0LjMxMjUsLTQyLjUwMzkwNyBjIC0wLjQ3NTY3LC0yLjgyMDc3NSAtMC43NzUzOSwtNS43MDc1NjQgLTAuNzc1MzksLTguNjc5Njg3IDAsLTI4LjE3NjM4IDIyLjIzMzc4LC01MC40MTAxNTI1IDUwLjQxMDE2LC01MC40MTAxNTY1IDI4LjE3NjM4LC00ZS02IDUwLjQxMDE1LDIyLjIzMzc3MDUgNTAuNDEwMTYsNTAuNDEwMTU2NSAwLDI4LjE3NjM4MSAtMjIuMjMzNzgsNTAuNDEyMTEzIC01MC40MTAxNiw1MC40MTIxMDkgLTUuMDY4NjksLTEwZS03IC05LjkzNDE3LC0wLjc0NTYzMSAtMTQuNTIzNDQsLTIuMDg5ODQ0IGwgLTQzLjM2MTMzLDQxLjU5MTgwMSBjIDE2LjczMjIzLDEwLjg0Nzk1IDM2LjYxMTIzLDE3LjE4OTQ1IDU3Ljg4NDc3LDE3LjE4OTQ1IDU4LjgxNTQ5LDEwZS02IDEwNy4xMDM1MSwtNDguMjg4MDQgMTA3LjEwMzUxLC0xMDcuMTAzNTE2IDAsLTU4LjgxNTQ4MyAtNDguMjg4MDIsLTEwNy4xMDM1MjMgLTEwNy4xMDM1MSwtMTA3LjEwMzUxNiB6IiBzdHlsZT0iY29sb3I6IzAwMDAwMDtvcGFjaXR5OjE7ZmlsbDojZDZlM2ZiO2ZpbGwtb3BhY2l0eToxO3N0cm9rZS13aWR0aDozLjc3OTUzO3N0cm9rZS1saW5lam9pbjpyb3VuZDstaW5rc2NhcGUtc3Ryb2tlOm5vbmUiLz4mI3hhOyAgPC9nPiYjeGE7PC9zdmc+;" parent="1" vertex="1">
          <mxGeometry x="940" y="612.8261027190331" width="21.20845921450151" height="34.259818731117825" as="geometry" />
        </mxCell>
        <mxCell id="LfOJHmE77x6VwFVhjRun-12" value="" style="edgeStyle=orthogonalEdgeStyle;fontSize=12;html=1;endArrow=blockThin;endFill=1;rounded=0;strokeWidth=2;endSize=4;startSize=4;dashed=0;strokeColor=#4284F3;" edge="1" parent="1">
          <mxGeometry width="100" relative="1" as="geometry">
            <mxPoint x="829.59" y="629.57" as="sourcePoint" />
            <mxPoint x="929.59" y="629.57" as="targetPoint" />
          </mxGeometry>
        </mxCell>
        <mxCell id="fcTcvbIOMBe-Im9oTsyQ-17" value="" style="rounded=0;whiteSpace=wrap;html=1;" parent="1" vertex="1">
          <mxGeometry x="360" y="540" width="200" height="180" as="geometry" />
        </mxCell>
        <mxCell id="fcTcvbIOMBe-Im9oTsyQ-5" value="" style="strokeColor=#dddddd;shadow=1;strokeWidth=1;rounded=1;absoluteArcSize=1;arcSize=2;" parent="1" vertex="1">
          <mxGeometry x="680.0035616438356" y="600.0016091238671" width="149.5890410958904" height="57.919033232628394" as="geometry" />
        </mxCell>
        <mxCell id="fcTcvbIOMBe-Im9oTsyQ-6" value="BigQuery" style="editableCssRules=.*;html=1;fontColor=#999999;shape=image;verticalLabelPosition=middle;verticalAlign=middle;labelPosition=right;align=left;spacingLeft=20;part=1;points=[];imageAspect=0;image=data:image/svg+xml,PHN2ZyB4bWxucz0iaHR0cDovL3d3dy53My5vcmcvMjAwMC9zdmciIHhtbG5zOnY9Imh0dHBzOi8vdmVjdGEuaW8vbmFubyIgd2lkdGg9IjIwLjAwMTA0NTIyNzA1MDc4IiBoZWlnaHQ9IjIwLjAwMTA0NTIyNzA1MDc4IiBmaWxsLXJ1bGU9ImV2ZW5vZGQiIHZpZXdCb3g9IjAgMCAyMC4wMDEwNDUyMjcwNTA3OCAyMC4wMDEwNDUyMjcwNTA3OCI+JiN4YTsJPHN0eWxlIHR5cGU9InRleHQvY3NzIj4mI3hhOwkuc3Qwe2ZpbGw6I2FlY2JmYTt9JiN4YTsJLnN0MXtmaWxsOiM2NjlkZjY7fSYjeGE7CS5zdDJ7ZmlsbDojNDI4NWY0O30mI3hhOwk8L3N0eWxlPiYjeGE7CTxwYXRoIGNsYXNzPSJzdDAiIGQ9Ik00LjczIDguODN2Mi42M2E0LjkxIDQuOTEgMCAwIDAgMS43MSAxLjc0VjguODN6Ii8+JiN4YTsJPHBhdGggY2xhc3M9InN0MSIgZD0iTTcuODkgNi40MXY3LjUzQTcuNjIgNy42MiAwIDAgMCA5IDE0YTggOCAwIDAgMCAxIDBWNi40MXoiLz4mI3hhOwk8cGF0aCBjbGFzcz0ic3QwIiBkPSJNMTEuNjQgOS44NnYzLjI5YTUgNSAwIDAgMCAxLjctMS44MlY5Ljg2eiIvPiYjeGE7CTxwYXRoIGNsYXNzPSJzdDIiIGQ9Ik0xNS43NCAxNC4zMmwtMS40MiAxLjQyYS40Mi40MiAwIDAgMCAwIC42bDMuNTQgMy41NGEuNDIuNDIgMCAwIDAgLjU5IDBsMS40My0xLjQzYS40Mi40MiAwIDAgMCAwLS41OWwtMy41NC0zLjU0YS40Mi40MiAwIDAgMC0uNiAwIi8+JiN4YTsJPHBhdGggY2xhc3M9InN0MSIgZD0iTTkgMGE5IDkgMCAxIDAgMCAxOEE5IDkgMCAxIDAgOSAwbTAgMTUuNjlhNi42OCA2LjY4IDAgMCAxIC4wMDctMTMuMzYgNi42OCA2LjY4IDAgMCAxIDQuNzI3IDExLjQwM0E2LjY4IDYuNjggMCAwIDEgOSAxNS42OSIvPiYjeGE7PC9zdmc+;" parent="fcTcvbIOMBe-Im9oTsyQ-5" vertex="1">
          <mxGeometry width="30" height="30" relative="1" as="geometry">
            <mxPoint x="15" y="15" as="offset" />
          </mxGeometry>
        </mxCell>
        <mxCell id="LfOJHmE77x6VwFVhjRun-17" value="" style="edgeStyle=orthogonalEdgeStyle;fontSize=12;html=1;endArrow=blockThin;endFill=1;rounded=0;strokeWidth=2;endSize=4;startSize=4;dashed=0;strokeColor=#4284F3;entryX=0;entryY=0.5;entryDx=0;entryDy=0;" edge="1" parent="1" target="fcTcvbIOMBe-Im9oTsyQ-5">
          <mxGeometry width="100" relative="1" as="geometry">
            <mxPoint x="560" y="628.4200000000001" as="sourcePoint" />
            <mxPoint x="667.4" y="628.97" as="targetPoint" />
          </mxGeometry>
        </mxCell>
        <mxCell id="LfOJHmE77x6VwFVhjRun-1" value="" style="strokeColor=#dddddd;shadow=1;strokeWidth=1;rounded=1;absoluteArcSize=1;arcSize=2;" vertex="1" parent="1">
          <mxGeometry x="374.99" y="640" width="170" height="59.91" as="geometry" />
        </mxCell>
        <mxCell id="LfOJHmE77x6VwFVhjRun-2" value="&lt;font color=&quot;#000000&quot;&gt;Mage VM&lt;/font&gt;&lt;br&gt;Compute Engine" style="editableCssRules=.*;html=1;fontColor=#999999;shape=image;verticalLabelPosition=middle;verticalAlign=middle;labelPosition=right;align=left;spacingLeft=20;part=1;points=[];imageAspect=0;image=data:image/svg+xml,PHN2ZyB4bWxucz0iaHR0cDovL3d3dy53My5vcmcvMjAwMC9zdmciIHhtbG5zOnY9Imh0dHBzOi8vdmVjdGEuaW8vbmFubyIgd2lkdGg9IjIwIiBoZWlnaHQ9IjIwIiB2aWV3Qm94PSIwIDAgMjAgMjAiPiYjeGE7CTxzdHlsZSB0eXBlPSJ0ZXh0L2NzcyI+JiN4YTsJLnN0MHtmaWxsOiM0Mjg1ZjQ7fSYjeGE7CS5zdDF7ZmlsbDojNjY5ZGY2O30mI3hhOwkuc3Qye2ZpbGw6I2FlY2JmYTt9JiN4YTsJPC9zdHlsZT4mI3hhOwk8cGF0aCBjbGFzcz0ic3QyIiBkPSJNNyA3aDZ2Nkg3eiIvPiYjeGE7CTxwYXRoIGNsYXNzPSJzdDEiIGQ9Ik05IDBoMnY0SDl6TTUgMGgydjRINXptOCAwaDJ2NGgtMnoiLz4mI3hhOwk8cGF0aCBjbGFzcz0ic3QwIiBkPSJNOSAxNmgydjRIOXptLTQgMGgydjRINXptOCAwaDJ2NGgtMnptMy01VjloNHYyem0wIDR2LTJoNHYyem0wLThWNWg0djJ6Ii8+JiN4YTsJPHBhdGggY2xhc3M9InN0MSIgZD0iTTAgMTFWOWg0djJ6bTAgNHYtMmg0djJ6bTAtOFY1aDR2MnoiLz4mI3hhOwk8cGF0aCBjbGFzcz0ic3QyIiBkPSJNMyAzdjE0aDE0VjN6bTEyIDEySDVWNWgxMHoiLz4mI3hhOwk8cGF0aCBjbGFzcz0ic3QxIiBkPSJNMTAgMTBsLTMgM2g2eiIvPiYjeGE7CTxwYXRoIGNsYXNzPSJzdDAiIGQ9Ik0xMyA3bC0zIDMgMyAzeiIvPiYjeGE7PC9zdmc+;" vertex="1" parent="LfOJHmE77x6VwFVhjRun-1">
          <mxGeometry width="30" height="30" relative="1" as="geometry">
            <mxPoint x="15" y="15" as="offset" />
          </mxGeometry>
        </mxCell>
        <mxCell id="LfOJHmE77x6VwFVhjRun-19" value="" style="shape=image;verticalLabelPosition=bottom;labelBackgroundColor=default;verticalAlign=top;aspect=fixed;imageAspect=0;image=data:image/jpeg,/9j/4AAQSkZJRgABAQEAYABgAAD/7QEsUGhvdG9zaG9wIDMuMAA4QklNBAQAAAAAARAcAVoAAxslRxwCeAARTWFnZSBjb21wYW55IGxvZ28cAloACE5FVyBZT1JLHAJ0AAEAHAJlAAEAHAJQAAhIYW5kLW91dBwCXwACTlkcAhkAAQAcAmkADk1hZ2UgRGF0YSBMb2dvHAIFAA5NYWdlIERhdGEgTG9nbxwCNwAKMjAyMjowMzowMhwCcwAJTWFnZSBEYXRhHAJuAAlNYWdlIERhdGEcAmcAAQAcAnoAAkNOHAIoAAxTZWUgUmVsZWFzZSAcAhQAO1BSTkFyY2hpdmVfMVllYXJ8V2Vic2l0ZURpc3RyaWJ1dGlvbnxFbnRlcm1lZGlhRGlzdHJpYnV0aW9uHAIPAAtIVFMsQ1BSLFBEVP/iAhxJQ0NfUFJPRklMRQABAQAAAgxsY21zAhAAAG1udHJSR0IgWFlaIAfcAAEAGQADACkAOWFjc3BBUFBMAAAAAAAAAAAAAAAAAAAAAAAAAAAAAAAAAAD21gABAAAAANMtbGNtcwAAAAAAAAAAAAAAAAAAAAAAAAAAAAAAAAAAAAAAAAAAAAAAAAAAAAAAAAAAAAAACmRlc2MAAAD8AAAAXmNwcnQAAAFcAAAAC3d0cHQAAAFoAAAAFGJrcHQAAAF8AAAAFHJYWVoAAAGQAAAAFGdYWVoAAAGkAAAAFGJYWVoAAAG4AAAAFHJUUkMAAAHMAAAAQGdUUkMAAAHMAAAAQGJUUkMAAAHMAAAAQGRlc2MAAAAAAAAAA2MyAAAAAAAAAAAAAAAAAAAAAAAAAAAAAAAAAAAAAAAAAAAAAAAAAAAAAAAAAAAAAAAAAAAAAAAAAAAAAAAAAAAAAAAAAAAAAAAAAAAAAAAAAAAAAHRleHQAAAAARkIAAFhZWiAAAAAAAAD21gABAAAAANMtWFlaIAAAAAAAAAMWAAADMwAAAqRYWVogAAAAAAAAb6IAADj1AAADkFhZWiAAAAAAAABimQAAt4UAABjaWFlaIAAAAAAAACSgAAAPhAAAts9jdXJ2AAAAAAAAABoAAADLAckDYwWSCGsL9hA/FVEbNCHxKZAyGDuSRgVRd13ta3B6BYmxmnysab9908PpMP///9sAQwAEAgMDAwIEAwMDBAQEBAUJBgUFBQULCAgGCQ0LDQ0NCwwMDhAUEQ4PEw8MDBIYEhMVFhcXFw4RGRsZFhoUFhcW/9sAQwEEBAQFBQUKBgYKFg8MDxYWFhYWFhYWFhYWFhYWFhYWFhYWFhYWFhYWFhYWFhYWFhYWFhYWFhYWFhYWFhYWFhYW/8AAEQgBHwSwAwEiAAIRAQMRAf/EAB0AAQABBAMBAAAAAAAAAAAAAAAJBAYHCAEDBQL/xABeEAABAwIDBAUFCQoKBQsEAwABAAIDBAUGBxEIEiExCRNBUWEUIjhxgRUyQnR2kZW00hYjUlZicnWCobIYNjdDVZKUsbPRJFNjc5MXGTM0Z4Oio6bB5ERGZPBX4fH/xAAcAQEAAgMBAQEAAAAAAAAAAAAABAUCAwYBBwj/xAA3EQACAgEBBQUGBgMBAQADAAAAAQIDBBEFEiExQRMyUXGBBhQiM2GhFVKRsdHwQsHhNCMHQ/H/2gAMAwEAAhEDEQA/AN/kREAREQBERAEREAREQBERAEREAREQHz7VzzWNMws/MpcF1T6S9Yyo31kZLX0tE11VIxw5td1QcGHwcQrZs+1pkpX1YglxBW0O8dBJVW2UM19bQ7T1ngtyxrpLeUXp5Gt3Vp6OSM46LnkvJwpiKx4ms0d2w9d6O6UMnBtRSTtlZr2gkHgR2g8QvVctLTT0ZmnqcoiIehEWl22btfVNoutVgnKWsgNRTkxXC/holDH8jHTA6tJHIyHUc90cA5bKqZ3S3YmMpqK1ZtpjPGGFcI0YqsUYktNmhcDuvuFbHAH+Dd8jePgFZTdovI51T1IzNsG9vbupqCG6/naaaeOuiinxHeLtf7xNdb5c6y5V1Q7emqqyd0ssh8XOJJVAQrSOy46fFI0du+iJosK4lw7iegNdhu/Wy8UwOhnt9ZHUMB7i5hIXracFCvhLEV+wtfIrxhy8Vtqr4DrHU0c7onjw1aeIPaDwPat79ifa4ONrrS4DzMfT09+qCI7ddY2COK4P7IpGjzWSnsI0a7loDpvRsjAnUt6L1RnC1S4M26REUA3BERAEREAREQBERAEREAREQBERAEREAREQBERAEREAREQBERAEREAREQBERAEREAREQBERAEREAREQBERAEREAREQBERAEREAREQBERAEREAREQBERAEREAREQBERAEREAREQBERAEREAREQBERAEREAREQBERAEREAREQBERAEREAREQBERAEREAREQBERAEREAREQBERAEREAREQBERAEREAREQBERAEREB89vBDwQLFWe2fGDcs2PoqmZ10ve7qy20jhvN7utfxEY9eru0NIW2mi2+ahVHVmi/Iqx4Oy2WiMqk8NV5eIcSYesEQlvt8ttsYRrvVlXHCNPW8haGZpbSOZuL5JIaa7e4FvcTu01qJifp+VN78nv0IB7liOrnmqal9RUzyTTSHefJI4uc495J4ldNj+yl0lrdNL6Licxke1lMXpTBy+r4fYklqc6cp4ZWxnMGwFz9QNyta4e0gkD1le1hzMLAuIJ2QWTGFjuE7/ew01wifIf1Q7X9ii5PNchqlWeytKXw2PXyRGq9qbpS+KtaebJagdeIXA7eKjbyszuzJwFNG204iqKqhZoDb7g41FOWj4LQ46s/ULVuJs77QOFszwy2TN9xsQhmrrfPIC2o0HEwv4b3funRw48CASufztj5GKt7vR8V/tHQ4W1qMr4e7Lwf+mZiREVUWxT1tRBSUctXVTMgp4I3SSyyODWxtA1LiTwAABOq0P2sdpi9Y1rqvC+Caua2Yajc6KSpicWT3MciSebIjx0YOJHvue6Mu9JJmFUWPAlBgW2TmOoxCXS1zmnzhSsI8zw336exjh2rRx44K/wBlYUXHtrFr4fyVeZkve7OPqdDwut4Xc4aLrcFdsgxRcGVmYGLMucTR3zCd2loqgECaLUmGpbr7yVnJzfXxHMEHipGdmPOKyZwYI906JrKO7Uekd0tu/vGneddHNJA3mO0JB9YPEKMB4V6bPGY9xyszUt2KKN0j6VjxDcqZh/61TOI32d2vwm9zmhVmdiRuhrFfEv7oTse1wej5ErKKisF0t97sdJeLVVR1dFXQtnpp43atkY4agg+oqtXMci0NfekTzTqMu8k/cyz1DobzimR9FTSsOjoIA0GeRp791zWAjkZAexRnvC2j6VK/S3LaAobGHfeLJZ4mhuuukkrnPcfDVvVj9VawPauhwK1ChPq+JCteszocF8ELucF8OCmamB0uCRvfHI2SN7mPYQ5rmnQtI5EFfTgvkheAlV2GM1Zs18hqG6XObrL3aZDbrs7tllY0Fsv67HMcTy3t4dizMtD+h8vEkeLMa2AyfeqmhpqwMJ5Oje9hIHqlGvqC3v04LmsqtV3SiuRNresUcoiLQZhERAEREAREQBERAEREAREQBERAEREAREQBERAEREAREQBERAEREAREQBERAEREAREQBERAEREAREQBERAEREAREQBERAEREAREQBERAEREAREQBERAEREAREQBERAEREAREQBERAEREAREQBERAEREAREQBERAEREAREQBERAEREAREQBERAEREAREQBERAEREAREQBERAEREAREQBERAEREAREQHHJCRongsO7Yeab8uMvfJrZLu329b8FARzgaAN+b9UEAflOHMArdj0WZF0aq1xZGysmGNTK2b4Isja92hX4cnqMD4GqWm6AFlwubHBwoj2xR/7TvPwOQ873unVVNNU1UlRPK+aaZ5fJJI4uc9xOpJJ4kk8dV9TOkmmdLK9z3yOLnucdS4nmSe0r4LeOvavqWztm04NKhBcer6v++B8r2jtK7Ouc5vh0XRHS4L53V3hq53PBTJPQiVw1OjcXIau7cQsUecixpq0OndX3Rz1FHVxVVJPLBUQPEkUsTyx8bgdQ5rhxBB7QvvdXy5qhzZa0wN59jLO8Zh2QYYxJO0Ymt0O8JHaD3QhHDrAPw28N4dvvh2hueVFdg++3TC2KaHENkqXU1fbphNBIO8cwR2tI1BHaCR2qSfJnG1uzCy6t2Kbd5gq49KiHe1NPM3g+M+o8u8EHtXD7XwVRZv1r4X9mdhs7KdsNyfNfc0q6RSvlrdpCopnucW26200DAeQBaZeHtkKwM9q2P6SWwy2/O2ivYjIp7za4yJN3QGWJxY5uvbo3qj+sFrq9qucKSeLDTwId0X20tfEpXtXS8Kqe1dT2rdKRlGJSvC6nhVT2roe1amzdGJsHsW7SL8sgMI4vM9ThaaUvp5o2l8lse46uLW83RE6ktHEEkjUkg7y4Vxzg3Elk917Fii1V9G1m/JNDVsIiH5Y11YRrxDtCO1RIyNXQ9qq8jArslvJ6Ml12SS0Mj7aWLbbjfaTxLfbNO2otwmjpaedh1bK2GJkRe0jm0uY4g9oIWKHtVU8Lqe1Sq0oRUV0MWtXqUr2rqcFVPaV1PastRulO4L4IXe5vgu+yWu4Xq9UlotNHNWV1dM2Cmp4W7z5ZHHRrWjtJJCOWg3TcbofLBObhjXFD4y2BsdNQQvI4PcS+R4B8AI/6wW8g5LGuyfljFlJkna8KOc19wdrV3WVh1ElVIBv6HtDQGsB7QwFZLXN5NisuclyJcFpHQIiLSZBERAEREAREQBERAAi+SrH2lr3dcN5AYxv1jnFPcaCyVM1LN2xPDDo8eI5jxAXsY70kl1PG9FqXzr4pr4qFCsxFiCrqpKmqvtynnlcXSSy1kjnvceZJJ1JXX7tXj+lq7+0v/zVt+Ev8/2/6RfevoTZ6+Ka+KhM92rx/S1d/aX/AOae7V4/pau/tL/817+Ev8/2/wCj3r6E2euq44cwoTfdq8f0tXf2l/8Amtnuivxvihmfs2FJLzV1Fnulsnlmo55nPjEse6WyNBPmu01BI5g8ddBpqu2ZKutz3tdPoZQyFKSWhIsuCOKBW/mRjTDGAcLTYjxdeaa122n4OmmPF7jyYxo1c9x0OjWgkqsSbeiJHIuDs4q3cf45wbge3isxdie12WFwJjNbVsidLpzDGk7zz4NBK0U2i9t/F2I5qiz5YU7sOWoks90pmtfX1De9vNsII7t53aHDktVr7dbpe7rLc7zcqu41tQd6aqrJ3TSyHvc9xJPtKtKNmTktZvQjzyEuRJHjTbgyRssjorZLfMQPbqA632/cj1/OndGdPEArH946QqzxvItWWFdUt14GqvLICR6mxPWiKKdHZlC5rX1NLyLGbwf84d/2Qf8Aqb/4q9qw9IJhGWZovWXt7o4zpvOo6yKpIHboHCPX51oKizezsZ/4/dnnbz8SUvL7a+yKxTKyB2KZLHUSEaRXqldTj2yjeiHteFmu0XCgutuiuFrraatpJ270NRTTNkjkb3tc0kEepQkq78p8z8eZa3cXDBmJq62EvDpadkm9T1GnZJC7Vj/aNR2aKJbsqPOuX6myOS/8kTJHxCcNFrJsk7XuHczKqmwrjOCnw/iiXRkL2v0ori/ujLjrG89jHE68NHEnQbOKotqnVLdmtGSoyUlqgiIsDI45IF5uKb3aMOWGpvV9uNLbrdRx9ZUVNVKI442+JPzAdpOi0q2j9umd089kydoWxsaS03+4Qbzn8+MEDhoByIdJrr2sHNbqcey56QRrnZGC4m6mJ8QWLDVpdc8Q3mgtVDHwdU11SyCMHu3nEDXwWEcd7ZeReHJXw09+rr9NGSHMtFC5417g+QsY71hxCjax5jDFONb2674txBcLzWu10lrah0hYCdd1gPBjfyWgAdy8RWteyorvy18iPLJfRG+l76QbDcTne4+W90qxp5pq7lHT6nx3WSadq8v/AJw7/sg/9Tf/ABVo+ikrZ2N+X7s19vPxN9LJ0g+HZS33Xy2ulKCPONJc46gj1bzI9f2LI2CNtLIvED2xVt1umH5HnRrbrb3BpP58JkaPWSFGKiwls2h8k16nqyJomqwlibD2KbULnhm/W28UTjoKigqmTx69xcwkA+HNesoVsFYqxJg+9svGFr7X2euj00noqh0TiNddHaHzm94OoPctztlzbfFVU0uG844ooXSERxYipYt1mvZ5TE0aN/PYNBw1aBq5V9+zbILWD1X3N8MiL4Pgbuoqehqaaso4qukqIqiCZgfFNE8PZI0jUOa4cCCO0KoVcSAiIgCIiAIiIAuPYuVrNtL7Y+B8vaipsWEI48V3+LVjzBNpQ0r+IIfKNd9wOmrWeILmkLOqqdst2C1MZSUVqzZZzmtaXOIAA1JJ4ALFmY+0hkrgmV9Pece22WqjJa6lt5dWytcPguEIcGH84hRtZ1Z8Zo5pTyNxVieo8gefNtVETT0bB3dW0+fp3vLj4rHCtatldbJfoRpZP5USHYm2+ss6RzmWTCuJbm5vJ8zYaaN3DsO+53ztCtSq6QyFsxFPlLJJH2OkxGGOPsFMf71o4ilrZuMun3ZqeRZ4m8lJ0hkDpdKrKaWNmnvo8Qh519Rp2/3q8ML7euVVdK2O84fxNanO5yCCKoiZx7S2QO7uTT/nHWiS2bjvktPULIs8SXzLTPfKPH0jIMM47tVRVSnRlHPIaaoce4RShrnewFZFJUHyzNkXtQZsZZTQ09NfZL5Z2aNNqvD3Txtb3RvJ34+3TdO73tKh27KaWtcv1Nscn8yJW9e9OawrsybS+AM5I47dTSmzYj3N6WzVsg3nkDUmCTgJgNCeADgBqWgcVmrlyVVOuVct2S0ZJjJSWqGoTXXtWpfSy40xFhzLTDlisdzqaCC+10/lz6aUxvlZExmkZI47pMmpHbuhaAe7V4/pau/tL/8ANTcbZ8r61Pe0NNl6hLTQmz18U18VCZ7tXj+lq7+0v/zT3avH9LV39pf/AJqR+Ev8/wBv+mHvX0Js9fFNfFQme7V4/pau/tL/APNPdq8f0tXf2l/+a9/CX+f7f9HvX0JsgQV9KNrov8b4pg2kKbC/u1WTWm9UdSaukmmc+MvjiMjJACeDgW6ajsJCklVdk0Oizcb1N9c9+OoREWg2BERAcck9SDisKbSe01l1lB1tuq6l16xGG6ts1A8b8Z04dfJxbEOXPV2h1DSFlCudkt2K1ZjKSitWZrHirGzJziyvwC58eLccWi3Tx++pDUdbUj/uY96T/wAKjmzw2rs3cxZpqZl8fhu0SHRtusz3Q6t/2kw++P1HMahp/BCwi5znOLnEkk6kk8SVaU7Kk+Nkv0I8slf4okfxbt2ZO2x7orRQ4kvb9DuyU9EyGI+syva4f1CrJunSFW2N+luysq6huvOovbYTp6hC9aKopsdm0LmtfU0vIn4m8A6Q4bw3soSB2kYk1IH9lVw4f6QLA00gF7wJiCiaTxNHPDU6exxjUfyLJ7Oxn/j92O3s8SVXL7axyKxXJHBFjSK01Mmn3m8wupA31yuHVf8AjWY7bWUlwoYqygqoKqnmbvRTQSB7JB3tcOBHqUI6u/KjNHMDLa6CtwXiivtfnB0lOyTfp5vz4Xasd7Rr3aKJbspf/rl+psjkv/JEyZXA9S1A2a9uCwYgmp7FmnSQ2C4P3WMvFPqaKZ3L7406uhJ4cdXN5kloC24o54KukiqaWaOaCZgfFLG4ObI0jUOaRwIIOoIVTdTZU9JolRnGS1R38kOnHivKxvXT2zBt3uVKWiejoJ54i4agOZG5w1HbxAUNt+xfiq93mou13xHdKytq5DJPPNVvLnuPt/ZyC34uHLI10emhhbb2enAmn18U18VCZ7tXj+lq7+0v/wA092rx/S1d/aX/AOamfhL/AD/b/pp96+hNnr4pr4qEz3avH9LV39pf/mnu1eP6Wrv7S/8AzXv4S/z/AG/6PevoTZ6jTmihTtuJsR2+vhrqC/3Slqad4khnhrJGPjcORa4HUFS/5FXevxBklg6/XWbrq+64eoKyrk3dN+WSnje92g5aucSoeVhvH01euptqt3+GhdyIihm4IiIAiIgOAUPNYP2jtqPLfKV09qkqjfsRRcDaLdICYXd08vFsXq4v4g7uh1WkudO1znBj6SWmpLz9y9qfqBR2UmJ5b+XPr1hOnPQtafwVLowbreKWi+pqndCJI/j/ADKy/wADsJxbjGy2h4Gohq6xjZnDn5seu+72ArDOMdt3I+zF7LbV3y/uA4G320saT3azmP59D7VGlUTS1E7555XyyyOLnve4uc4nmSTzK+FZQ2VWu82yO8mXRG+d46QbDsbne5WW90qQAd01VzjgJ7td1j9P2+1eZ/zh3/ZD/wCpv/irR9FIWz8b8v3Zh28/E3qtnSFW15HujlZVwDe4mnvbZjp38YWcfBXnhbbwyguL2xXa14lszjpvSS0kc0TfbHIXH+qo4kWMtmUPktPULIsJfcus9Moccyshw1j6z1NRI7RlLNMaaoee5sUwa8+wLInqUHyynkxtE5t5ZywxWLFVRVW2HQe5VzJqaUt/Ba1x3ox/uy0qHbsp865fqbY5P5kS3excrWjZx2ycAZhVFPZcVxjCV9l0YwVMwdRVLzw0ZMdNwn8F4HYA5xWywIIBB1B5FVdtU6pbs1oSYyUlqjlERYGRZWdeaeC8qLBS3jG1xmoqOtqfJYHxU0kxdJuudpowEjg08Vjb+GdkB+NNd9D1P2FlPNTLrBmY9op7VjWxw3ejpJ/KIIZZXsDJN0t3tWOB5OI9qj56QLLvBeAdo3DuHcH2OG12usstLUT00csjxJI+rqGOdq9xPFrGjgexD1JG6GWG0zlBmDjihwjhe/1VVdrj1nk0Mltnia7q43Su1c5oA81jjxPYveyczpy8zQvN0tODb1JV1lnDXVcMlLJC5rS4t1bvgbwBboSOWo7wqbAeQWUGCsWUmJ8LYJpbbdqHf8mqo6iZzo99jo3aBzyOLXuHEdqjq2Y8x3ZW7UdJiWeYx2yavlobtx4GllfuuJ/MIZJp3xhBpqSvSvbGwve4NDRqSToAO8qwMl86Mvc1bhdKLA95luEtnDDVl1JJE0B5cGlpe0BwJY7krF6RHMoYA2dK6moKjduuKSbXRFj/ADmRvbrNINOOgj1aCOTpGFYN6HT+MuPPilD+/Mg04G9yIiHh868z4KPHa0xlLjXPC71LJd+htspoKIB2rRHESC4fnP33a9zh3LffHdzNlwTeLu3QOoLfPUgnkCyNzuPzKMd7HOeXOJc5x1JJ1JK672Toi7bLn00S9ef7HG+1t0uzrpjybbfpyKcMXBZqqoRLnq128pHGQp1KRsa+urVUI0MajzmT6aNCl3PBCxVO4uHMUWcixqqKVzV8OaqpzF8OYos5FhXWUrmrYHo+swjhzMabBlwn3bdiLTyfed5sdW0ebp3b7dW+JDFgR7VzRVFRRV8NbRzPhqKaRssMrDo6N7Tq1wPeCAVXZdcbqpVy6llj61zUkSC7WeV3/KjljJQUTY23q2vNVa5HnQOfpo6InsD28Pzg0ngFHXd7fWW25T2+4UstLV0sjop4JmFr43g6FrgeIIKk6yTxlT4+yvtGKIQxslZAPKo2cop2+bI31BwOnhoVae0HkJhDNJrq6drrVfWsDY7pSsBLwOQmZwEgHrDhoNDpwXN4ea8Zuqzl+xcXUKz448yON7V1PaswZ1bPWYeXnXVk9u917PHqfdK3NMjGN75Ge+j8SRu/lFYle1XMb4zWsXqjQq2noyjkaumRqq5Grpe1YuRujAo3tXS9qrHtXS9qwcjaoFI9q6XtVW9q6ntWDkZqBSvaupzFVuYrvyWyqxnmniYWfCVrdPuEeVVkpLKakafhSP04dvAauOnAFYuxRWrZ7uFm2Gz3O+3uls9moZ66vrZRFTU0DC58rzyAAUiuxNs1UGU9tjxRimKGtxjVxkbwIfHa2OHGOM8i8jg54/Nbw1Lrq2X9n3COTls6+mY26YjqI92svE0YDgDzjhbx6tn7XdpOgAzCqnJzHZ8MeR6oJBERQjIIiIAiIgCIiAIiIAiIgHasb7Xvou49+T1X/hFZIPMLG+176LuPfk9V/wCEVnT8yPmjGXdZEKiIuvKsIiIAtiui3c1u1lQhzgC+1VgaCeZ3AdB7AfmWuqzPsBYosGD9p6y33E91p7XboKasbLVVL92NhdTyBoJ8ToB4kBaMlN0zS8GZ1vSaJJM+czsMZS5e1OLMUVBbEw9VS0sehmrZyCWxRjvOhJPIAEngFFntD5v4uzixtJfcS1RbTxuc2322Jx8noYyeDWDtd+E88XHuAAHr7YGc1yzmzWqLtvzRWG3udT2SiedOqh14yOH+sk0Dnd3BupDQsUqNhYaqjvS7z+xsutcnouQREVgaAiIgCIiAIiIACQdQdCFIJ0c20fUYyp48sceXAy3+liJtFfM7z7hC0cYnntlYASHc3N58Wkuj7VZh+63GxX6jvVoq5KSvt9QyopaiI6OikY4Oa4HwICjZWPG+Gj59DOubhLUm1HNWdnbmRhbKrANVizFdb1NND5kMDNDNVykHdiib8Jx09QAJJABKt3JfOnDuLtm+nzUu1ZDb6eko3uvQ3vNpJ4hpKwDnxOhaOZD2dpUb+1VnNfM6Mypr5WmSmtNIXQ2e3EjSkg15nTgZHaAuPHjwHAACjxcOVtjjLglzJtlyjHVdTs2ns+MY504nNTd5nUVkppCbdZoJCYaccQHP5dZJodC8jtIAaOCxaiLo64RhHditEQG23qwiIsjwIiIAiIgCIiA2j6PraSqcvsQU2AMZ3B0mEq+XcpKiZ2vuRM48Dr2QuJ84cmk7w087WR1pBAIOoPaoP1JP0ZucEmPcpH4PvNSZb3hJscLXvPnT0RGkTte0s3Sw+AYSdXKl2lipLtY+v8kvHs/xZs2iIqclhERAcdqo71caC0Wmpul0q4KOio4nTVFRPIGRwsaNXOc48AABzVTK9kbC97g1rRqXE6ADvUbO37tIVGZmIpsE4Qrnx4Nts27JJE7QXeZp/wCkd/smkeY3kdN88d0N342NK+e6uXU12WKC1KnbO2tLxmFVVeEcv6qotWEwXRT1TdY6m6jUgknmyIjkzgSPfc90avIi6WmmFUd2CK+UnJ6sIiLcYhERAEREAREQHbRVNRR1kVXSTy09RA8SRTRPLHxuB1DmuHEEHtC3+2Ddq37sX02XeZdaxl/Okdqu0mjW3LsEUvYJu48n8vfab8fi+oZJIZmSxPdHJG4OY9p0LSOIIPYVHycaF8N2XMzhY4PVG9nTH/xbwH8brv3IFoisvbQefV5zcyywZh7EVCXXbDInFXdTNr7ob4Y1jizTzXbrPOOp1PHhrosQrHDqlVSoS5rX9z22SlPVBERSjWEREBn7oy/TAsHxSt+rSKUQ8wou+jL9MCwfFK36tIpRDzC57anz15E7G7oREVcSAviV7Y4y97g1rRqSToAO8r7WhXSN7Sktyrq3KbAdwcygp3OhxBcKd+hqXjg6lYR8Bp4PIPnHVvIHe3Y9Erp7sTCc1BasrdtLbFkfPV4Iyfr9yJpMVfiOI8Xnk5lKewdnW9vwOGjjpRUTS1FRJPPK+WWVxfJI9xc57idSSTxJJ7V8Iulx8eFMd2CK+c3N6sIiLeYBERAEREAREQBbA7Ge05iDKK709gv81RdcFzyaS0jiXy27U8ZKfU8BqdTHyPHTQnVa/ItVtMLY7slwMoycXqiZHEd8tGJslLpfbFcIK+219kqJqaqgdvMlYYXcR/cQeIIIOhChuWbtmPaKu+VWC8SYPraKW72O90MzaWm67cNFVPYWdY0nXzHA+c3vAI7dcIqLhY0qHNPl0NltimkwiIp5pCIiAKYjZj9GvL75JWv6pEod1MRsx+jXl98krX9UiVPtblHzJWLzZfSIipSYERUl2rqO12upuNxqoqWjo4XTVE8zw1kUbQS5zieAAAJJQHze7lb7Naam63Wtgo6GjidNUVE8gZHExo1LnOPAABaBbX+2TdsUy1eE8qamotVj4xVF5AMdXXjkeq+FDGe/g8jnu8Wqy9uLaSuWbuIJcN4emlpMF2+Y9RENWuub2nhPKOe72sYeXM+d73XtXmHs9RSnauPgQrb2+ETlznOcXOJJJ1JJ4krhEVsRgiIgCIiAIiIAiIgC2T2PtrHEWWVTTYZxpLVXzCPBjC479VbB2GJxPnRj/Vk8B70jiHa2ItVtMLY7s1wMoycXqia3Ct8tGJsOUd9sNwguFtr4RNS1UDt5krD2j+4g8QQQdCF6nDVRebDu0Tccn8Wx2S+1M1Tgy5zgVsB1eaB54eURDnw4b7R74DkXAKTq3VVNX0EFbR1EdRTVMTZYZonhzJWOGrXNcOBBBBBC5vKxpUT0fLoWFdimipIUe3SnelrhP5PUX16qUhSxzmpkfldmPi+lxPjTC/uldaGnZTU9QbhUw7kbHvka3dika06OkedSCePcAoxsTMikKLLJ7Lf/AJRsu84RSU/W3bD3k11t+6POd1clT1sY7TvRF/DtcG9wUpysTKnJ/LvLS4XSvwTh73MqLzu+Xu8tqJ+u3S4jhLI4N4vdy05oepmiGz7V4j2ks9cusN4oYJ7PgG0tNYC4ubPBA8HeeD8KQ+TxO7w3VX50Ov8AGXHnxSh/fmW2eUmT+XGWNdcqvA2GIrRNdtzyxzKmaXfDS4tAEj3BgBceDdBy7hp85OZN5b5V1NfPgLDnuTJc2sZVu8uqJ+sDC4tH32R+mm87lpzQal+oiIeFrZ1wvqMnsVwR6b8tjrGN17zA8KOPq1J7caaKtoJ6SYb0c8bo3jva4aH9hUbWIrTPZsQV9oqhpNb6qSml7POY4tP7Quw9lbUlbDrwf7nI+0tLlKufmv2PHEa56tVYjTq11kpHO11FJ1a4LPBVZjXBj8FHlIm11FIY18uYqwxr4dGos5k+uoo3MXW5irHMXW9iizmTq6yjexdT2KsexdT2KLOZMhWbJdHHjYUd/umAayUCK4NNfbw4/wA60AStHeXMDXf92Vt9wUYWAsQV2EcbWvEtuP8ApNsqmTtbroHgHzmHwc3Vp8CVJXhe8UWIMOUN8tkvW0lxp2VEDtebXAEa9x46EdhXNbTq0t311/ctKH8Oh6R4LA+0Vsz4Ux3SVN3wzBBYcREF4fC3dpqx3PSVg4NJPw2jXjqQ7ks8hFArsnXLWLNrSfMiZxZYrrhzENZYr3Qy0VwoZTFUQSjixw/YQRoQRwIII4FeTI1budIzlpBdcIQ5jW6ANr7QW09xLG/9NTOdo1x7yx5A1/BedfehaUvarum9WQ3hGBRyNXS9qrJGrpkas3M3Kso3sXW5iq3sXW5ngsHIzVZSOZ4KUzZLw7YsObPGFYMPxxdTWWuCuqJmM0NRPLG18j3duu8dNDxAaG9ii6cxbFbIG03Plna24RxfS1Vxw415NHLT6OnoC46uaGkgPjJJOmoIOumuuiiZMZTjwEqm1wJBOHcuVaWWeZGCcwLYK3CGIaO5ANDpIGP3Z4df9ZE7R7PaOPZqrs14Kuaa5mhprmcoiLw8CIiAIiIAiIgCIiAIiIAeYWN9r30Xce/J6r/wiskHmFjfa99F3Hvyeq/8IrOn5kfNGMu6yIVERdeVYREQBERAERACToBqSgCLYPJLY7zZx7SRXK401PhS2SgOZNdw5tRI09rIGje/r7mvYSs84f6PzB0FO0X3H99rJeG+6ipYaZp79A/rNPnUOzOog9HI2xpnLoaBopBr50f+XssDxZ8bYmpZCPMdVinqADp2hrI9ePiFgPPvY3zNy9t096szoMW2enaXzS2+NzKqFg5ufTkkkfmOfpxJ0A1SvPoseilxEqZx46GuqIimGoIiIAiIgPYpMU4jpcF1eEaa9VkVir6plXVW5kpEM0zRo17m9pGg/qtPwRp46IvEkuQCIssZB7OeaObTGVtgszaKzuOhu9zcYaY6HjucC6Tt940gEaEhYzsjBayeiPUm3ojE6Le7CPR9WSOla7FGYlfUTEaujtlAyFrD3B0heXevdHqXvV+wDli+ACjxhiyKTd0LpZKaRpd3gCFug8Nfaob2ljp8/sbfd5+BHmi20zf2D8c2Ggkr8C4go8TsjBcaKaLyOqI7maucx59bm+AWqt7ttxs12qLXdqGooa6kkMdRTVMRjkicObXNPEH1qTVkV2rWD1NcoSjzRSoiLcYhERAFlnYhx+/LraRw7dZJzFb7hOLZcuPmmCchu87wY/cf+osTICQdQdCFhZBTg4vqexej1JwkVk7O2KnY3yMwpimaXrJ7laYJKp3PWcNDZf8AzGvV6jkuQlFxbT6FonqtTlEXi5gYktuD8E3bFN5l6ugs9HJV1BHMtY0ndb3uOmgHaSAiTb0R6av9J/nbJhXCbMrcN1hZd7/B1l2ljd51NRHUdXqOTpSCD+QDw88FR7q4c1sY3fMDMW8Yxvkm/W3eqdO9uuoibyZG38ljA1o8GhW8upxKFTWl16lbZPflqERFJNYREQBEWRMjMj8yc2qzdwhYZJKFkm5PdKt3U0cJ7dZD74jUatYHO48ljOcYLWT0R6k29EY7Rb25fdH5aGU7JccY+rZ5nAb9PZaZkLWHtAllDy717jfUsh02w/kbFA1j6a/zOHOSS6EOPr3WgfsUGW06E+HE3LHmyM9FJBiHYRydroXe51xxPa5dPNMVdHKwHxa+Mk+whYRzg2Ecd2Kmlr8CX6jxPAwb3kczPI6sjubq4xv/AKzSewLKvaFE3prp5njomuhqairsSWa7YevVRZ77bau23ClduT0tXC6KWM+LXAFUKnJ7xpCIiAIiIAiIgM/dGX6YFg+KVv1aRSiHmFF30ZfpgWD4pW/VpFKIeYXPbU+evInY3dCIqW8V1JbLTU3OvnZT0tHC+eomf72ONjS5zj4AAlVxINfekQzvkytywZYcPVnU4pxI10VLIw+fRU44STjudx3WHvJcPeKMkkk6k6kq+9pPMivzWzju+MawyNgqJjFboH//AE1KwkRM9enE97nOParEXT4WOqal4vmV1s9+WvQIiKWagiIgCIrryny2xxmVfPcrBWHau6zMI66SNu7DTg8jJK7RjBwPMjXThqvJSUVq3wPUm+CLURbp5abAF0niiqMf44hoyQC+is9MZncewzSboBHgxw8e/Kto2GMkqSHcqZcTV7tPf1FyY0/+XG0f/wCKDPaWPF6a6m1Y9jI10Ullw2HMj6inMcLcRUjj/OQ3MFw4flscPHl2LHGYfR+UxgkmwLj+Zkg16ulvVMHNd65otNP+GV5HadEnz0Dx7EaNIr+zsyZzGyouAhxnh2emppH7kFxh++0k57A2VvAHQE7rtHeCsFTYzjNaxeqNTTT0YREWZ4EREAREQBTEbMfo15ffJK1/VIlDupiNmP0a8vvkla/qkSp9rco+ZKxebL6REVKTDjhotCOk7z7kul4myewpWEUFDIPuhqInf9YnB1FMCPgsOhd3v0HDcOuzm2XmuzKDI6vvtNIz3Zrj5FZ43aH/AEh4P3wjtDGhzz2EgD4Sidq55qqqlqamV800zzJLI92857idSSTzJKtNm4u++1lyXIi5Fmi3UdaIiviGEREARfcEUs87IYY3ySyODWMY0lznE6AADmSVuhsubEMtfSU2JM4ZJ6WGQCSLD9NJuSkf/kSDizX8BnnceLmnULRfkV0x1mzOEJTeiNLoY5JZWxRMc97zo1rRqXHuAVyU2XGYdRC2anwHiaWN3vXx2eoc09nAhil0y9y+wRgW3NosH4VtVnja3dLqWma2R/58nv3nxcSVc+ngqyW1uPww+5IWL4shWxDhLFVhi62+YZvFsYdPPraCWEcToOL2jtXjqb6RjJGFj2hzSNCCNQR3LDWduy7lJmPRzSTYegsd1k1LLpaI208gd3vYBuSannvDXuIWVe1U3pOOh5LGfRkUyLJ203kdi/JTFbLdfmtrLbWbxt12p2EQ1TRzBB95IOGrCTprqCRxWMVawnGcVKL1RGaaejCIizPAt6OiwzsfVwSZO4krC6WBj6jDssrtS6MaulptfyRq9o7t8cA1oWi69TBeIbrhPF1txLY6k01xtVUypppR8F7TqNR2g8iO0EhR8qhXVuLM65uEtSa0BHK2soMY27MHLKyYztf/AFa8UbJwzXUxP5PjJ72PDmnxaVc2gXKtNPRlknrxCIiHoREQBERAfOi0/wBtvBD7NmOMT0sJFDfWgyOA81lS0aOH6zQ13iS7uW4ParczQwlbcb4Mq7BcxusnbvRShuroJR717fEH5wSO1T9mZrw8lWdHwfkQc/EWTQ4dea8yPfqvBcOi8FdGPMJXjB+JqiyXqmMM8J1Y4e8mZ2PYe1p/zB4gheK6LwX0BXxnFSi9UzkVQ4vda4lAYl8mNVzovBfLovBapzJVdRQmPwXw6NVro18OjUSdhOrqKF0a6nsVe6NdT4/BQ52E6uooHxrpexV72LpkYo0rCXCsoHsW1PR/5mxGkflpeKkNkY589mc8+/adXSQjxB1eO/V/cFq9Ixc2ysrLXdKe5W6okpquklbNBNGdHRvadQR6iFByErYOLJUKyUYIsYbN+btnzNwxGHzQ02IKWMC4UGuhJHDrY9ffMPPh70nQ9hOT1SSi4vRmTWhaeeVJBX5N4rpKlu9HLY6sEd33l5BHiCAfYovJGqQnbcx/Q4QyauFobOw3XEcD6Glpw7zuqeN2WQj8EMJGve4KPx7FNxW1FkimGq1KN7F0vaqx7V0vat++SVWUj2rqc1VbmeC63NXm+bFWUrmr4LFUuavgtWLmbFWLXWVtsr4q63VlRR1UDt6KenldHJGe9rmkEH1LNmWu1lm5hZsdNcbjTYjo2ADq7pFvSgeEzC15Pi8uWES1cbq1yalzMuwjLvI3zys2ysAYgmio8V26swzVScOuefKaTXxe0B7dfFmg7SthrHdbbe7VDc7PX0tfRVDd6GppZmyRyDva5pIKiGAV85I5s4zysvwrsNXJ3ksjw6rts5LqaqA7HM7D3Obo4d+moUeVa6Gi3Z6a1r4MlO5ckB8FYGz7mvhzNnBgvVkc6GppyI6+3yuBlpJSNdD+Ew8d1/I6HkQQL/1Woq5RcXuyXE5REXh4EREAREQBERAcBWBtU07KjZnzAjeXANwvcJBu97KZ7h+1oV/hWNtOejZmF8k7n9UlXtb0mvM8lyZDuiIuxXIqgiIgCIiAAEnQDUlSIbBGy/Q4NslDmFj63NnxRVMbPQUNQzVtoYeLXFp/nyNCSeLOQ0cCVrr0bWV0OYWfTLvdaYTWbCUba+oY8aslqC7SnjcO7ea5/cREQeak7VNtLKa/+UfX+CVj1p/EzlERUxMCIiAjv6T7JOiwbiilzJwzRNprViCoMNyp4mBsdPWaFwe0DkJQHEjsc1x+EANTVLltk4Tixpsz4ws7ousmjtklbTDTj11P9+YB4kx7vqcVEaui2bc7KtHzRAvhuy4dQiIrA0BERAERXvs5ZfVOaGdFhwVA58cVwqdayZo4w07AXyvHjuNdpr8IgdqxlJRi5Pkj1LV6Iz/0fGzHBjkQZlY/o9/DsUp9y7ZI3hc3tOhkk/2LXAjd+GQdfNGjpBaSCCmpo6amiZDDCwMZHG0NaxoGgaAOAAHYuixWy32WyUdotdLHSUNDAynpoIhoyKNgDWtA7gAAq08Fy2RkSvnvPl0LKFagtEcoiLQZnBWq/SXZIUGL8tqrMqw0LI8RYch66udE3R1dRNHn7/e6Nvnhx+C1w4+bptQV0XCmgraGaiq4WTU9RG6KWN41a9jhoWkdxBIWym2Vc1KJjOKlHRkIqL3s0sOvwjmZiDCshJNlutRRBx+EI5XMDvaAD7V4K62LUlqirCIi9AREQEmHRXXs3XZVht5OvuHeauiA7g4tqP75ytkfgrTTod7gZMB40tW9wprlTVGmo4dZE9uunP8Amf2LcvsXLZsd3ImvqWVL1ggOS1B6WzMF9oy1s2XdDPuzYhqDV14aePk0BBa0judKWkf7krb3tCiu6Q/GLsYbVWIurmMlLYSyz0w113Op1Eo/4zplt2fVv3rXpxMb5aQ8zCCIi6QrwiIgCIsi7K+V9Xm7nPbMJRukioSTU3WoYOMFKwjfI7nO1axp/Ce3sWE5qEXKXJHqTb0RlrYM2YXZnzsxxjeGaDCVNKW01MCWPu0jTxAPMQg8C4cSQWgjQkSK2G122yWamtNooKehoaSMRwU1NGI44mjkGtHABcYetVusVio7LaaOKkobfAynpaeIaMijYA1rR4AAKuXMZOTO6er5dEWNdagtDlERRzYEREBi3aXyMwfnRhZ1DfIG0t2gZpb7zBGDUUp110PLfjPawnTiSNDoRFpm7gPEWW2Pq/COKKPyeuoXcHN4x1EZ4sljd8JjhxB9YOhBAmb0K1w6SHJ6LMPJybFVrow7EeE4nVMT2M8+ppBxmhPadBrI0ceLSB78qxwMt1zUJP4X9iPfUpLeXMjOREXQkEIiIAiIgM/dGX6YFg+KVv1aRSiHmFF30ZfpgWD4pW/VpFKIeYXPbU+evInY3dOOxa2dKHmAcI7PDsO0c/V3DF1T5END5wpmaPnI8CNyM+EpWyevBRvdK9i1962iabDEcmtPhi1xRuZ3Tz/fnn2xmD5lpwKu0vWvTiZ3S3YM1fREXTlcEREARFc2TmCbpmLmbZ8F2caVN2qhF1hbq2CMedJK4dzGBzj6ljKShHeYS14GT9izZ0uudWI33G5vnt+EbbKG11bGAJKl+mvUQ6gje0ILnaENBHMkAyX4BwlhvBGFqfDmFbPS2u20vCOnpmaAntc483OOnFziSe0lfGWWELHgHAttwjhukFNb7ZAIom8N555ue89r3HVxPaSV7/YuZysqV0vp0RY1VKC+p9IiKKbQiIgPPxHZ7ViCyVNnvduprhQVcZjqKWqiEkcrT2Fp4FRxbdWzJPlXVuxng1ktTg6qlDZInOL5LTI46BjyeLoyeDXniD5ruOhdJYvNxVZbZiPDldYb1Qx1tvuNO+nqaeT3skbhoQe71jiOYUjGyZUz1XLqjXZWpohQRX5tL5a1uU2cl3wbVOklp6aQS2+peNDU0r+Mb+7XTzTpw3muHYrDXUQkpxUlyZXNNPRhERZHgREQBTEbMfo15ffJK1/VIlDupiNmP0a8vvkla/qkSp9rco+ZKxebL6RcNVuZvYpgwRldiDF1RuFlmts1U1rzoJHtYSxn6zt1vtVKk29ES29CO7pNcyX422gpsOUdTv2nB7TQRNafNdVHQ1D/AFhwbGf914rXJd91raq5XSpuNdO6eqrJnzzyu5yPcS5zj4kkldC62itV1KC6FZKW9JsIiLaYhEV15F4LqMxM38PYLpi5hvFcyKaRvOKEaulePFsbXu9ixlJQi2z1LV6G33Rh5B00VthzhxZQtkqJyRh2lmYCImA6GqIPwiQQzuALuO80jdlUdlt9FabRS2q200dNR0MDKemgjGjYo2NDWtA7gAB7FVnkuUvuldY5ssoQUFojlERajMIiIC1c4cB4fzJy+uGEMS0onoq6Mhr9B1lNIB5ksZPJ7TxB9YOoJBiPzmwLectcy7tgy/M/0u1zlgla3RlRGeMcrfyXtIcO7XQ8QVMyVpv0tmW8VwwTacz6Cm/0uzzNt1ye0e+ppCTG535kp3R/vlY7NyHCzcfJ/uR8iGsd7wNBkRF0JBCIiA316IjHr67CWIsuKyfefapm3K3hx49TL5srQOwNeGO9cpW5mnBRVdHliw4U2r8NufL1dNenyWmoGum/1zdIx/xhF8ylVPaub2jXuXtrrxJ+PLWHkcoiKCbwiIgCIiA4Qp2c1ZGLs1sEYdndT1V4bU1LDo6CjYZnA9xI80HwJ1WUK5zekFqzGU4xWsnoVWbGALFj6w+Q3aHcni1NLWRjSWnce7vB7WngfAgEamZq5YYlwLXOFxpjPQl2kNfA0mF/cD+A78k+zUcVn920RhAS6e5F8LNOJ6mHXX1dZ/7q5sL5pZf4rHuey5xMknG4aS4RdX1mvDd87zHa9wJVvi5GbhrRxbj4f3kQLqse96qWkjSd0S+HReC23zA2fsI3x7qmySSWOqdxLYW9ZTk/7skEfqkDwWIcXZCY+s5c+kooLtA3jv0curtPFjtHa+oFWkNq0Wrno/qR/cpwfFamInReC6nx+C9q72uuttY6luNFUUc7ffQ1ETo3j1ggFUL4/BezuN9dR5z410vjXoyRrokjUSdxNhUefJGuiRi9CSNdEkajStJUKjz5GLokYvQlYqeRi0O0lRqOi3VlbbLjFX22sno6undvwz08hjkjPe1w4grI1NtF5xUtt8jbivfAbutlloYHytH5xZxPidSscSMXRIxaZSi+ZvVKfNH1i293nEl6lu9+udTca2b389RIXuI7ANeQHYBwC8iRqrpGLusNnr75fqOzW2Az1twqGU9PEPhPcQB6hx59ix7Q3KtJHjsgkmmbDDG+SR53WsY3UuPcAOa777Yb1ZxGbtZ6+gEw1jNVSvi3x4bwGqkT2fcncNZYYdhZTU0FZfJGa1t1fGDI9xHFsZPFkfYAOfM6lXziOyWnEFnmtV6t1NX0VQ3dlp6mIPY4eo9vceYWt3EN5iUtEuBE89q63tWbtsLJV+VuKYq+ztlkw1dXkUb3uLnUsgGpge7t4cWk8SAeZaSsLPasu01LKpRsipR5FK5vgvhzVUvavhzfBN83Kspy1fO6u9zV8kLzeNirOrdXGi7S1fJasd4zUS99nXMi5ZW5n0OJKR8j6MuENzpWnhU0ziN5un4Q98094HZqpQbbWU9fb4K6jlbNT1MTZYZW8Q9jgC1w8CCCohiFJJsLXyW+7MeHH1D9+a3sloXHubFI5rB7I9wLCRVbVpWisXkZfREWBShERAEREAREQHB5Kxtpz0bMwvknc/qkqvk8lY2056NmYXyTuf1SVew7y8zGXJkO6Ii7FcirCIiAIiICSboqcKR2TZqdiF0Y8oxLdJqjrNOJiiPUMb6g5kp/WK2bHYsZbHFuba9lnAdKGboksVPU6DT+eb1uvDv6zX28Vk3sXJZE9+2UvqWda0gkcoiLUZhERAU9xpoa2gno6hm/DUROikb3tcNCPmKhKr6d9JXTUshaXwSOjcW8iQdDp8ym8d2qFbMKCOlx9fKaIERw3OoYzU6nQSuAVxsl8Zry/wBkTK6HjoiK6IgREQBbpdD3hRk2IsX42mjG9SU8NspXEf6xxkl9RHVxf1itLVJB0TdsbSbM1ZW7vn3HEFRLvcNS1sUMYHq1Y75yoG0p7uO/qbqFrYjaJERc4WAREQBERARQ9IHQR23bBxtTxabr6mnqDp3y0sMp/a8rDaz90mnpgX/4pRfVo1gFdXjPWmHkiss77CIi3mAREQG7PQ21G7c8waXc162G2yb2vLdNSNNPHf8A2LegLRDocP4y48+KUP78y3vC5naH/pl6fsWFHy0Ul+r6e02SsulW7dp6GnkqJnDsYxpcf2AqFXEVyqb1iCuvFY7eqbhVSVMx73vcXO/aSpbdrq6my7MmO68O3Xe4FTAx2vEOlYYgRxHHV4//AL5KIZTtkx4Skacp8UgiIrgihERAFIX0S2AmWfKS54/qYW+V4krDT0zyOIpYCW8D+VKZNR/s2+yPRTEbM+HmYU2fsHWFsYY+kslMZwP9c+MPkPte5x9qrNq2btSiupIxo6y1L6REVATgiIgCIiALrmjZLE6ORjXseC1zXDUEHmCF2IgId9pjBX/J5nzifCDI+rp6C4vNGOP/AFeTSSH/AMt7PbqrFW1XS32Btvz/ALPfYmaMvNjYJD+FLFI9pP8AUMQ9i1VXV4tnaUxk/ArLI7smgiIt5gEREBn7oy/TAsHxSt+rSKUQ8wou+jL9MCwfFK36tIpRDzC57anz15E7G7pweah82p76cSbR2NruX77Jr5Uxwu111ijkMcZ/qMapfqyeOmpZaiY7rIWF7zproANSoSrlVS11xqK2c6y1MrpZDx4ucSTz48ytuyYfFKXkY5T4JHQiIrwhhERAFut0QmBmz3TE2Y1VAHeStZaaF5Guj3ASTEdxDepHqefbpSpR+jYsbLLsi4fmDN2a7T1VdNw5kzvY0+P3uONV+07N2nRdeBvx46zM9oiLnSeEREAREQBERAab9LxgaOtwLh7MKlhHlNqqzbax7RxMEoL2F3g2RhA8ZVoKpaNuKxsxDsoY3onM3jT2t1c3Tm007mz6j/hH2aqJddBsyzeo0fRkHIjpPUIiKyI4REQBTEbMXo2ZffJK1/VIlDupiNmP0a8vvkla/qkSp9rco+ZKxebL5IWtXSo4ldZNmF1oik3ZMRXano3NHMxs3p3H1awsB/OWy3YtGemOvDjU4EsLHkNaytrJW68CSYWMPs0k+dVuFDeyIr+8Dfc9IM0jREXVFcEREAW0XRT09ggzwu+Ir7dbfROtdncyjbV1DIi6SWRrS5u8RroxrgdPwwtXUWm+vtK3DXTUyhLdkmTS/drg78bLH9Iw/aT7tcHfjZY/pGH7ShaRVn4TH8/2JHvT8CaX7tcHfjZY/pGH7Sfdrg78bLH9Iw/aULSJ+Ex/P9h70/Aml+7XB342WP6Rh+0n3a4O/Gyx/SMP2lC0ifhMfz/Ye9fQmkONMHH/AO7LH9Iw/aVgbVN2wTiXZyxrZpcT2OR0tjqZIWm4RH79GwyRcN7/AFjGKJpFlHZajJSU+X0DyW1poERFbkUIiID0sG3ebD+L7VfqfUS2uuhq49Oe9HI1409rVNXTSxz08c0Tg6OVoex3eCNQVCEplMhK510yNwZc3a71bh2gnOugOr6aN3Z61TbWj3JeZLxXzRdyIipiWEREAXVUSRwQvmle1kbGlznE6BoHEkldo5LFm07iKSgw1BYqWQtluRJnIPEQt5j9YkewEdqzqrc5qKMZy3YtmP8AOzNGvxFUz2ixTvpbQ0ljnsJbJWdmrjzDO5vb29wxW+HwXqPi1PJdb4fBdLQ4Ux3YFTNSslrI8p8K6nw+C9V0Pgup8PgtjyT2NJk7Z8zWrLRcKfDmJat09smIjp6mZ2rqR3IAuPOPs4+99S2SC0Zkh8FtFs44uGJMCx0dVLvXG0gQT7x857PgP+YaE97T3qizoR134+pY06paMvPEFjtF9ojSXm2UtdCT7yohDwPEa8j4hYgzC2cbHXxvqcKVr7XUaEtpagmWncewBx89nr871LOKKHC2cO6zbojQjHWEr7hG8utl+t8lLNxMbjxZK38JjhwcP/06FeBJH4LfDNLB9sxthKos1xjaHuaXUs+nnU8unmvH/uO0ahaQ3u3VFtulVbqyPq6ikmfDMz8F7XFpHzgqR7w2uJKpipHiyRqnkYvRljVPKxaZXE6FR50rFTysXoSsVPKxa3aSY1HnysVPIxehKxU0jFh2pIjUUMjFmXYGstPc8/2VM4aTabZPVxBw18/VkQPrAmJ9ixDIxZZ2HL/TWHP2khqXBjLxSS0AeeQe4tkYPa6JrR4uC8Vmpjk1vsJaeBvaiIszmS0858FUGYOW1zwrXBrfLYT5PMR/0EzeMcnfwcBr3jUdqjHvttq7Teau1XCF0NXQzvgqInc2PY4tcD6iCpYiOK0T6QnBQw9nFHiGlj3aPEtP17tBoBUR6MlA9YMbj4vK8b0LXZVvxut9eRr45q63NVS9q63N8F5vnQ9mUzmr5LSu9zV8Oavd8y7M6S1fOi7XBfJCbx7uHWRxUhnR3UstPsx2yWQaNq66rli/NEpZ/exyj7o6aesrIaSlifNPUSNjijYNXPc46AAd5J0Up+TOF2YKyssOFWlpfbKCOKZzeT5dNZHDwLy4+1e66lPtiSjVGPVsulERDngiIgCIiAIiIDg8lY2056NmYXyTuf1SVXyeSsbac9GzML5J3P6pKvYd5eZjLkyHdERdiuRVhERAEREfIExGzH6NeX3yStf1SJXyOasbZj9GvL75JWv6pEr5HNcdZ3n5lpHuo5REXhkEREBwe1QtZnfyk4h/S1V/jOU0p5qFrM7+UnEP6Wqv8Zyttk96foRcrkjw0RFeEMIiIApNOi09E+k/S9Z+8FGWpNOi09E+k/S9Z+8FW7U+R6kjG7xscOSIOSLnycEREAREQEXfSaemBf8A4pRfVo1gFZ+6TT0wL/8AFKL6tGsArq8X5EPJFZZ32ERFvMAiIgN0uhw/jLjz4pQ/vzLe8c1oh0OH8ZcefFKH9+Zb3jmuZ2j/AOmXoWFHy0YP6RmqdS7HGMHNkax8jaOJu9p529WwAgeO7vKK5ShdJr6IF/8AjdF9ZjUXqtNlfIfn/oj5PfCIisiOEREBVWSkdcLzSUDQ8mqqGQgMGrtXOA4DtPFTZwRxwwsiiYGsY0Na0DQADkAoXssf5ScPfpal/wAZqmlb2Kl2s+MF5/6JeL1OURFTksIiIAiIgCIiA0f6ZGjaafL+4DdDmvuMLuHFwIpnD5tHfOtHVvb0x38W8BfG679yFaJLpNn/APnj6/uQL++wiIpxoCIiAz90ZfpgWD4pW/VpFKIeYUXfRl+mBYPilb9WkUoh5hc9tT568idjd08TMaWSDL6/Twu3ZIrXUvY7uIicQVCwpqMwad9VgO+UsWm/NbKiNup4amJwGvzqFdSNk8p+hryugREVyRQiIgCl22OIY6fZZwGyIaNNhp3njrxc3eP7SVESpdNjOqjq9lfAcsfvW2OCI+tg3D+1pVVtb5cfMlY3eZk5ERURMCIiAIiIAiIgLVzupPL8mcXUO6x/lNhrYt148071O8aHw4qGdTLZ7VfkGSOMa7req8mw9Xy9ZprubtPIdfZooaVdbJ5SIeV0CIiuCKEREAUxGzF6NmX3yTtf1SJQ7qYjZi9GzL35J2v6pEqfa3KPmSsXmy+T2KO7pe6tz8+8PUPnbsOGo5R53DV9TUDl/wB2P2dykRPYo5ul39JOy/JKn+t1ih7O/wDQvU25HcNV0RF0hACIiAIiIAiIgCIiAIiIAiIgCIiAIiIApdtjmaOfZbwG+J280WCmYTppxazdI+cFREqW3Yg9E/A36Jb+85VO1vlx8yTjd5mVURFRk0IiIAsA7T3WSZgU7X67jLezcHZpvyan5/7ln5Yq2lbC+ooqK/Qs3vJtYKjQcQ0nVp9QOo/WC20z3J6muyO9HQwf1Pgvh0PHkvRbF4Lh0PgpMsvQ0xqPLfD4Lqkh8F6zofBdUkC0SzESIUnkSQ+C9zK/E1Tg7GFPdo951OfvVXE3+diPMescCPEBUckPgqeWHwUeeWnwJcKDce3VlPcLfDW0kzZqeojEkUjTwc0jUFVAWveQeYrMPH7n77OW2579aad2pFM482n8gnj4HXsJIz9S1ENRTtnp5o5YpBqx8bw5rh3gjmsITjJcDVZXKD0Z2laVZ8CKTN7ELoS0t8ueDuj4Q4O/bqtls38zLPhC2TQU1RDWXhzS2GlY7e6t34UmnvQOenM/tGplwdLU1MtTO90kszy+R7jqXOJ1JPtWm6+MeCZPwKJNub5HjzRqmljXpzRr0sH4LxHi+sfS4etM1Y6LTrHghscWvLee4ho5HhrqdOCj9s29EWu4orWXBFoysVNKxZJxXk9mHY6F1ZWYdllhaNXvpJGTlg7y1hLgPHTRY+mj0J1HJeSslHnwN1XZzWsHqedMxU0rF6MrFTStWPbEtVHnyNXXDLNS1UdTTSvhmheHxSRuLXMcDqCCORB7VVytVNK1ZK02qk3f2Yc6rbmFZIbTd6iKlxPTR6TwHzRVgfzsXYTpxc0cQdeGizCNd7lwUXtJUVNDWxVlFUS09RA8PimieWvjcORBHEELajZx2mKeu6jDeY88dPV8GU94OjYpe4Tjkx35Y809u7pqZVeQnwkc7n7InDWyparw8DZtYi2z8APx3kzVGgg626WU+X0bWt1dIGg9ZGPzmakDtc1qy1E9kjA9jg5rhq0g6ghfZ0PBSGtVoU1VkqrFNc0RMvaut7VsJtqZK1GDcRz4xw7ROdh25S787Im8LdM48WkDlG4nzTyBO7+Drr+8KK24vRndY1kMitWQ5Mpy3wXW4Koc1dbmopkjszocF8ELvc1ZR2acj8QZr35s25Jb8PU8g8tuLmcHaEaxRa++eR7G8z2A5p68jTfOFUHOb0SL06PfKeXE2O24+u9ORacPzA0e+3hU1Y4t08I+DifwtzxW9nDkvIwZh+0YWwzRWCxUbaO30MQighYPejvJPEknUkniSSSvX8VvS0OKzMl5Frn06HKIi9IoREQBERAEREBweSsbac9GzML5J3P6pKr5PJWNtOejZmF8k7n9UlXsO8vMxlyZDuiIuxXIqwiIgCIiPkCYjZj9GvL75JWv6pEr5HNWNsx+jXl98krX9UiV8jmuOs7zLSPdRyiIvDIIiIDg81C1md/KTiH9LVX+M5TSnmoWszv5ScQ/paq/xnK22T3p+hFyuSPDREV4QwiIgCk06LT0T6T9L1n7wUZak06LT0T6T9L1n7wVbtT5HqSMbvGxw5Ig5IufJwREQBERARd9Jp6YF/8AilF9WjWAVn7pNPTAv/xSi+rRrAK6vF+RDyRWWd9hERbzAIiIDdLocP4y48+KUP78y3vHNaIdDh/GXHnxSh/fmW945rmdo/8Apl6FhR8tGD+kbpTVbG+MA2MPfEKKVuunm7tbAXEa/k7yiuUvG19aTedmDHVC2PrHCw1M7W7upc6JhlAA0PHVg08VEOrHZL/+Ul9TRkr4kERFakYIiICqsVYbde6O4AvBpaiOYFh84brgeHjwU2cMjJYmSMc1zHAOa5p1BB5EFQhKYrZvxE3FeQuD8QCTfkrbLTGd2uv35sYbINe3R7XBU21o8IS8yVivi0XwiIqYmBERAEREAREQGjnTIV4MuALW13EC4TyDTv8AJ2t/uetIFs90r+Im3XaUpbNFJqyw2WCCVm9ruyyOfMTp2asfF8y1hXTYEd3HiiuuetjCIimGoIiIDP3Rl+mBYPilb9WkUoh5hRd9GX6YFg+KVv1aRSiHmFz21PnryJ2N3TqqI45oXxSsDmPaWuaRqCDzBUJl8oZLZeqy2zHWSjqJIHnTTi1xae/uU25UQ22DYHYZ2oMcWpzCwG9TVUbT2MnPXsHq3ZWrZsmXxyiY5K4JmN0RFekMIiIApO+jEv7b3snWui396SxV9VQSHXj/ANJ17df1Z2j1AKMRbgdEdj6O15gXzLutnDWX6nbW28O7Z4QesYPF0RLvVD88DaVe/Q9OnE3US0mSBIiLnCwCIiAIiIAiIgMPbeV/Zh3ZMxnVOdo+roRQRt10LzPI2IgfqvcfUConlvb0vWPI4bDhvLiknBmqZ3XevY13FsbA6OEHwc50p074wtEl0OzK92jV9WQMiWs9AiIrE0BERAFMRsx+jXl98krX9UiUO6mI2Y/Rry++SVr+qRKn2tyj5krF5svlR5dL7RFmeeG7juu0nw62HXXgdypmdp/5n7QpDexaRdMdZyabAuII2cGPraOZ+neIXsH/AIZFB2fLTIXqbr1/82aNoiLpivCIiALJeSuQeZ+a+Hqq+YKscNbQUdUaSWaWuhh++hrXloD3AnRr2nXTTisaLejoeMRxOtWM8JSSNEkc9PcoGdr2ua6OQ+wsi/rKLmWzqqc480bKoqUtGYV/gY5//irQ/S9N9tP4GOf/AOKtD9L0321KJx7k49yqPxS/wX99SV7tAi7/AIGOf/4q0P0vTfbT+Bjn/wDirQ/S9N9tSice5OPcn4pf4L++o92gRd/wMc//AMVaH6Xpvtp/Axz/APxVofpem+2pROPcnHuT8Uv8F/fUe7QIu/4GOf8A+KtD9L0320/gY5//AIq0P0vTfbUonHuTj3J+KX+C/vqPdoEXf8DHP/8AFWh+l6b7afwMc/8A8VaH6XpvtqUTj3Jx7k/FL/Bf31Hu0CLv+Bjn/wDirQ/S9N9tP4GOf/4q0P0vTfbUonHuTj3J+KX+C/vqPdoEYFv2LM+6itigmsFrpI5HBrp5rvCWRj8JwYXO09QJ8FIpkrhBuAMp8P4NbUeUmzW6KmknA0ErwPPcB2AuLiB2BXUUHJR78uy9JT6GyFUYcUcoiKMbAiIgC6LhS09dQy0dXG2WCdhZIx3JwK70QGAsxsCVmHKt08DX1Fte773NpqY9fgv7j48j+xWr1Pgto5Y2SxujkY1zHDQtcNQR3EKxsYZaW2tY+os+lFUc+rPGJ5/vb7OHgoeRCzTWHH6Gytx14mEnweC6pIPBXBdrXV2+tkpKyF0MsZ0c1w/aO8eKoZIeHJUc85p6PmWMKdTxZYeHJU00PPgvZmh8FSTw+C1PO16kqFJ400XgurrqqGF0UNTNHG/3zGSEB3rAXpzRKjnj5rz336kuFB480XgqSaPwXrTxqjnjXnvRMhSUlptdTdr1S2ujZvVFZOyGIdm84gDXw4rc7L/DVvwlhalsltjAjgaOskA0dM/4T3d5J+bgOQWsmQAp2Zy2N1SG7nXvH65ieGf+LdW3CutmNTg59eRSbalKM419NNTnhpxWHtoHJK3Ywp5bzh6KGhvrQXOAAZFW+D+5/c75+8Zg8E7OasZ1xnHdkVNN9lM1OD0ZHTe7bW2u5z2+40stLV0zyyWGVpa5h7iF5srVuztD5S0GYFpNbQtjpb9Sx6U9QRo2do/mpPDuPZ6tQtNr/bK+0XWe23KmkpqumkMc0Mg0cxw//efaqPJrnTLR8ujO22dl15kOHCS5r+9DxpWqmlaq+ZqpZWrVG0tVUUUrVTyNVdI1U8rVtVpl2RlLILP7E+XTorXX9ZecPtOnkckn3ymH+xeeQ/IPm92hOq3JyxzAwpj+xi5YYucdSAB19O7zZ6cnskZzHbx5HTgSo3JGqqw1fLzhu9RXew3Kpt1dAfMnp5C1w8D3g9oPA9ql05bjwfFFPnbDqyNZ1/DL7Pz/AJJOrjSUtwoZaKtp4qinmYWSwysD2PaeBDgeBC1izn2RaOvq5rnl1c4re5+rjbK4udCD3RyjVzR4ODufMDgvnJjazie2K15kUXVP4NF2oo9Wu8ZYRxHiWa/mhbJ4Wv8AZsR2iO6WK50two5PezU0oe3XuOnI94PEKepV3LgczKGds2zXTRfqn/f1I/r9s6ZxWycxvwZUVLddGyUlRFM13j5rtR7QF2Ye2bM47vUNYMJuoY3HR01dVRRNZ4kbxcfY0qREpzHevOwj4kl+0GTu6bq19f5NXsn9j2zW2piuOYN2F3kZo73Not6Om3vy5Do948AGcuOo4LZez26htNrgt1so4KSkp2BkMEEYZHG0djWjgAqoa6cVz2LdGKjyKrIy7siWtstf2OURF6RwiIgCIiAIiIAiIgODyVjbTno2ZhfJO5/VJVfJ5Kxtpz0bMwvknc/qkq9h3l5mMuTId0RF2K5FWEREARER8gTEbMfo15ffJK1/VIlfI5qxtmP0a8vvkla/qkSvkc1x1neZaR7qOURF4ZBERAcHmoWszv5ScQ/paq/xnKaU81C1md/KTiH9LVX+M5W2ye9P0IuVyR4aIivCGEREAUmnRaeifSfpes/eCjLUmnRaeifSfpes/eCrdqfI9SRjd42OHJEHJFz5OCIiAIiICLvpNPTAv/xSi+rRrAKz90mnpgX/AOKUX1aNYBXV4vyIeSKyzvsIiLeYBERAbpdDh/GXHnxSh/fmW945rRDocP4y48+KUP78y3vHNcztH/0y9Cwo+WijxDbqe72GttVW3ep66mkpph3se0tP7CVCrfrdVWe+VtprWblVQVMlNOz8F7HFrh84Km3UU/SD4PODtqrEcbIiylvcjbxTEjTfE4JkP/GEw9ik7Ks0m4eJryVwTMKoiK9IYREQBSH9E5j2K9ZOXHAdTPrWYYrDLTxk8fJZyXjQdukol17t9veo8FkXZXzQq8os57Zi2NsktCCaa607DxnpXkb4He5ujXtH4TG9iiZlPbUtLn0NlU9yepL6i8/DF6tuIcP0d8s1ZFWW+4QNnpaiJ2rZWOGoIXoLmGtCyCIiAIiIDjsVNdq2ktlrqblXTsp6WjhfPUTPOjY2NBc5x8AASqnnwWovSiZ1QYdwScqbDVh13v0YddnRu40lHrr1Z05OlIA0/ADtR5wK2U1StsUEYzkox1ZpFndjCfH+bmIsZThzfdi4yTxMcdTHFrpGz9VgY32K1URdZCKjFJFW3q9QiIsgEREBn7oy/TAsHxSt+rSKUQ8wou+jL9MCwfFK36tIpRDzC57anz15E7G7pweSjt6WzCDrVnbZ8Xwx6QYitfVSO05z053Xcf8AdvhHsKkSKwD0j+Xrsd7NdxraODrLlhaQXam0HnOjYCJ2+rqy52naY2rRg29nfFvk+BndHegyLxERdQVwREQBetgTEl2wfjK2YosVSae42mqZU00nHTeaddHAc2kagjtBI7V5KLxpNaMExWQGZljzXyvt2MbG8NbUt6urpidX0lQ0DrIXeIJ1B7WlruRV7hRHbLWd+Jck8bOulqHltqrt1l0tckm6yrYNdCDodyRup3XaHmQQQSFJxkfmxgjNjDDbzg68R1JDR5TRSkMqqNx+DLHrqOPDeGrTpwJXNZeJKmWq7pYVWqa48y+kRFDNwREQHzw0XiZg4osuC8G3HFWIqwUlstVO6eolPE6Dk1o7XE6ADmSQO1deY2M8L4DwvNiLF15pbVbqcedLO/QuOmoYxo857jpwa0EnuUau2jtHXfOi/i12xtRbcH2+Xeo6F5Akqnjh18+hI3uJ3W6kNB7SSTKxcWd0vp1ZqstUF9TG+fGP7nmfmveca3QFj7lUEwQa6ingb5sUQ/NYGgntOp7VaCIunhFQSiuRXt6vVhERengREQBTEbMfo15ffJK1/VIlDupiNmP0a8vvkla/qkSp9rco+ZKxebL5+CtdOlCwu6/7LFZcYoi+XD1xp7iN0eduEmF/sAm3j+br2LYvsXiZh4dosX4DvOFbj/1W80E1FKQOLRIwt3h4jXUeIVTTPs7Iz8GSpx3otELKKuxPaK/D+JLhYrpCYa62VclJVRn4Ekbixw9hBVCuti94qwiIvQFlTYwzJjys2grLiOtmMVqqSbfdj2Cml0BcfBjwyTh+AsVosLIKcXF8meptPVE3sMjJYmyRua5jwHNcDqCDyIK7AtOOjb2i6S8WKhylxpXtiu1CwQWGsmdoK2EDzack8pGDg38JoA5t87cftXK30yqm4SLKE1Nao5REWozCIiAIiIAiIgOBp2IdO1WZm3mpl9ljQwVWOsU0doFS7SCJ4fLNL3lsUbXPLR2kN0HaV6+AcWYbxthinxFhW8U11ttVr1VRTu1Go4FpB0LXDtaQCO0L3dlprpwPNVroe6iIvD0IiIAiIgCIiA+eC517l1VE0NPEZZ5WRsHNznAAe1eJV4vssJLWzSTEf6th/vOih5GfiY3C6xR82Zwqss7kWyhzassVyw86tYweUUQ3w7tcz4TT/f7PFYhlh8FkvFWMm1ttmo6KlkYJmFj3yEAhp4EADXmPFWHNF4LgNubXxLMlSx568OL6a/8A8L3Ax7Iw0sR400Ko6iLgvamiVDUx8+CqY7Q16lrCk8aoj8FQ1Ea9ioj8FQVDFvjmakqFJ5FQxUU7F6tQxUNQzmt8comQpKKkqZ7fcYK+kkMVRSytlieObHtOoPzhbcZXYtocZYWgulM5rZgAyqgB4wygcW+rtB7QfWtR52KuwXim8YQvQuVmqdx3KaF3GOdv4L29vr5jsVtsza/u9nxcYvn/ACQtp7J97qTjwkuX8G565WNsuM5cL4lZHTV07bRXnQGGpkAY8/kScAfUdD4FZGY9rm7zXAg8QR2rtqMiq+O/XLVHD5GPbRPcti0z7WKdpPKamx7ZjcrXHFBf6OM9RJpoKlo/mnn90nkfAlZW1TtWVtUbYOEuQx8iyixWVvRojdulJUUNbNR1kEkFRTyOjmikbuujeDoWkHkQRoqCVq212vsphe6CXGuH6Um50setfDGONTE0e+A7XtA9oHeBrqfK1cvk1Tx7N2XofS9mZdedQpx59V4P+8iikaqeRqrZQqaQLGNhZdkUkgXQ9vgqqQLpeFujMdkUz2r1cFYsxNg+6+6OGb1VW2fk4wv82Qdz2HVrx4OBC854XU8LbGxrijCePCyO7Nao2kyo2vXtEVDmDZN4cGm420cfW+Fx+ctd6mrZDAWNcLY0tXl+F73R3KEab4hf58evIPYdHMPg4BRjuavQwniC94XvkN5w9dKm3V0B1ZNA/dOncRyc09rSCD2hTqs6UeEuKOfzfZei5OVHwy+3/PT9CUlFhPZTz2pcy6M2O9siosSUse85jTpHWsHOSMHkR8JnHTmOGobmzxVnCcZx3onDZONbjWuq1aNHKIizNAREQBERAEREAREQHB5Kxtpz0bMwvknc/qkqvk8lY2056NmYXyTuf1SVew7y8zGXJkO6Ii7FcirCIiAIiI+QJiNmP0a8vvkla/qkSvkc1Y2zH6NeX3yStf1SJXyOa46zvMtI91HKIi8MgiIgODzULWZ38pOIf0tVf4zlNKeahazO/lJxD+lqr/GcrbZPen6EXK5I8NERXhDCIiAKTTotPRPpP0vWfvBRlqTTotPRPpP0vWfvBVu1PkepIxu8bHDkiDki58nBERAEREBF30mnpgX/AOKUX1aNYBWfuk09MC//ABSi+rRrAK6vF+RDyRWWd9hERbzAIiIDdLocP4y48+KUP78y3vHNaIdDh/GXHnxSh/fmW945rmdo/wDpl6FhR8tHK0+6W7L592y9suYtDBvTYfnNHcHNHHyaYjccfBsoA/71bgFeLmDhq2YxwTdcK3qJ0lBeKOSkqA33wa9pG809jhzB7CAtFFnZWqfgZzjvRaIWEVxZsYOu+X2Y13wde2btZaap0L3AaNlbzZI38l7C1w8HBW6usjJSW8isa0CIi9AREQGxOxLtOXLKCtGGsTCpueDql+91TDvTWx5PGSEHmw8S6PhqfOGh1DpGsA4wwxjfDcV+wlfKS7W6f3s9NJvAH8Fw5scO1rgCO0KFxe9l7jXFuBb0LvhDENws1ZoA6SknLBIB8F7fevb4OBCrsrZ0LXvQ4M313uPB8iaNOSjiwLt35s2mFkGIbXYcQtaOM0lO6mnd6zGQz5mK+IOkNlEQE2UbHyAec5mJC0E+ANMdPnVVLZ2QnwWvqSVkVvqbzBcFaF4i6QfEM1ORYstLbRSacHVt0kqmg+pkcX96wrm3tQ5zZg00tFcMUOtVum1D6Gys8kjcDza54Jkc3ThuueR4LOGzb5P4uB48iC5G5217tXYWyyoarD2EqmlvuLyHR9XG7fprY7lvTuHAvB/mgdeHnbvDWN3FN7u2JMRVl+vtwnr7lcJnTVVTO7V8rzzJ/wDYDgBoBwCoEVzjYkKI6R5+JEssc3xCIilGsIiIAiIgM/dGX6YFg+KVv1aRSiHmFF30ZfpgWD4pW/VpFKIeYXPbU+evInY3dC6aiKKogfDLG2SKRpa9j2gtc0jQgg8wQu5FXEgiN2wcrZspc87rhyOF7bTUu8ts8juIfSyElrde0sIdGe8s17QsXqVLbpyWZnFlM6O2RMGJbFv1NnkOg60kDrKck8hIGjTuc1h5aqLGsp6ikq5aSrgkgngkdHLFKwtfG8HQtcDxBBBBBXS4OQrqtHzXMrrq92X0OtERTTUEREAXpYRxDfsLX2G9YbvFbarhTn73VUc7opG941aeIPaDwPavNRGk+DBtNljt2ZoWGCOlxbabVimFg0653+h1TvW+MFn/AJevissWjpA8FyU29dMA36ml095S1EM7dePwnbh7uxaAooU9n48nrum1XWLqSB1/SA4BZTF1FgbEk03YyaSCNp/WDnH9ixvmJt943uMElPg3B9qsYfq0VNbM6tmaPwmjSNgPgWuHr5rURF5HZ2PF67p677H1LjzJx7jLMC+e6+MsR115qxqGOqZPMiB5iNg0aweDQArcRFNjFRWkTS3qERF6AiIgCIiAKYjZj9GvL75JWv6pEod1MRsx+jXl98krX9UiVPtblHzJWLzZfSIipSYRxdKfli/C+ccGPLfT7trxZHrOWN0bHWxtDXg6ct9m4/xPWHsWrSmB2l8s7fm1k7dcG1xZHUTs663VLxr5LVMBMcnq4lrtObXOHaojsWWO64axNX4fvlHJR3G21D6eqgkHGN7ToR4juI4EaELodnZG/Vuvmv2IF8N2WvieeiIrE0BERAfcEssE7JoZHxyxuDmPY4hzXA6ggjkQVuxsn7bDaampcK5xulkDNI6fEUUZe7Ts8qYOJ0/1jQSeGreblpIi0X49d0d2aM4TlB6omuwtfbLiOyw3fD91o7pQVA1iqqOdssb/AFOaSPZ2L0+xQxZcZgY1wDdPdDBuJrlZpiQXilnIjl8JIzqx48HAhbC4D28c0rVCyDEtjsWIWNHGbcdSTvPiWEx/NGFT27Lti/geqJUcmL5kjHtT2rSy1dITZZAPdHLGupzodfJ7uybQ68PfRM7FxcekJszA/wAgywrZ9NNzr7wyLe79dInadveo/uGR+X9jZ29fibqJ2KPrFHSAY8qY3Nw/gewW4nUB1ZNNVkeI3TGNfWPYsP5h7TueGMWSQ1+PK+hpZP8A6e0htE0N7W70QD3D85xW2vZl8u9ojB5EFyJL81M2sustqV0mM8XW22Shu82ldJ1lTIPyYWavPMcQ3TitQ8+9u+5VrZrXlPZDbmHVvuxdWNfOfGKAEsb3gvLufvQVpnUTS1E7555XyyyOLnve4uc4nmSTzK+FYU7Nrhxlxf2NM8iT5cD0cV3+94nv096xFdqy6XGqdvTVVXM6SR/tPYOwch2LbjojcxPIMX33LSun0hu0XulbWudwE8YDZWtHe6Pdd6oStNlcmT+L63AOaFixlb9TNZq6OoLAdOtYDo+M+DmFzT4OUnJoU6XBGqE92SZM8iosP3KivNiorxbZxPRXCmjqaaUcpI3tDmuHrBBVauWLMIiIAiIgOF59+ucVtpDK/wA57uDGDm4qvJ7fasf4prXVt3k46sjO6weA7faVxXtx7TfgWzlOHzJvSP08X6L7k3BxveLdHyXMobvXVVxnMlTKXfgsHBrfUF58kaq38F1PX55lt26+x2WzcpPm29WdVXTGKSiuBQyxqlnjXpSBUs7QptO1NXzJEazy52KhqGL1ahqoalvNXFOdr1N0KzyKlnNefVM5r16pq86qCs6srXqTK6zyKhqoahi9OpaqGoHNToZBMhUeZUNVDUNXpVDVQztUuF5KjUedO0r28J5gYwwq1sVmvlTFTsPCnk0li8dGO1A9mi8mcKjmarCjLsrlvQlo/oZTw6rY7tkU19VqZ1wJtIee2mxfaAxp4eWUGpA8XROOvrId6gs44Yv1nxHamXKy3GCtpZOUkTtdD3OHNp8CAQtDpmr1svsZX3BN/bdLJVFhOgnp36mKob+C9vb4HmOxdPge0FkWo3cV49TmtpeydNkXPF+GXh0f8G9xBIPitONr3LRmD8UMxBaYd20XiRxMbW6Npajm5g7muGrmjs0cOQC2hypxnbMcYQgvduduk+ZUQF2roJQBvMPfz1B7QQV95qYUosa4Er8PV2jW1Uf3qXTUwyDix49TtPWNR2rpMqqGXRrHj1TOS2ZmW7NzfjWi10kv74cyPKUKmlC9fEdsrLPeaq1XCAxVVHM6GZh+C5p0PrHivLlC5NScXoz6zBKcVJcilkC6HhVUgXQ8cVIjMy7Mp3hdTgqh4XS9blIdmdLgvghdzgvhwWakFAq8LXq54cxHRXy0VL6auoJmzQSt7HDsPeCNQR2gkdqkmykxbSY5y7tWKaNoYy404e+PXXqpAS2Rmv5Lw4exRmELcjo37xNVZbXuySuc5tuuQli1PvWysHmjw3o3H9YqxwLWp7nRnJ+1uDGWIshL4ov7P/uhsiiIrk+chERAEREAREQBERAcHkrG2nPRszC+Sdz+qSq+TyVjbTno2ZhfJO5/VJV7DvLzMZcmQ7oiLsVyKsIiIAiIj5AmI2Y/Rry++SVr+qRK+RzVjbMfo15ffJK1/VIlfI5rjrO8y0j3UcoiLwyCIiA4PNQtZnfyk4h/S1V/jOU0p5lQtZnfyk4h/S1V/jOVtsnvT9CLlckeGiIrwhhERAFJp0Wnon0n6XrP3goy1Jp0Wnon0n6XrP3gq3anyfUkY3eNjhyRByRc+TgiIgCIiAi76TT0wL/8Uovq0awCs/dJp6YF/wDilF9WjWAV1eL8iHkiss77CIi3mAREQG6XQ4fxlx58Uof35lveOa0Q6HD+MuPPilD+/Mt7xzXM7R/9MvQsKPlo5REUM3Gp/SZZGS42wezMnDFIZL7h+nLbhDE3zqyiGri4d74+JHe0u7mhR2qcBwB1BGoKjx6QjZnmwXdarMjAlvfJhytlMtzoYI9fcmQ8S9oHKFx18GHhyI0uNnZaS7Kfp/BEvq/yRqaiIroiBERAEREAREQBERAERV2G7RdMQX+jslmoZq64187YKWmhbq+V7joAF43ugoUWwm2FkFa8lMq8ByPqJanEl3dVC9TCXWDfa2JzWRt7Gs3y3e5u4nhqANe1hTbG2O9HkZSi4vRhERbDEIiIDP3Rl+mBYPilb9WkUoh5hRd9GX6YFg+KVv1aRShnmFz21PnryJ2N3TlERVxIOAtMukX2aJb8KrNXL+3ukujG798tcDNTVtAOtTG0c5ANN5o98BvDzgd7c5cdq203SpnvxMJwUloyD5FITtn7IFJjSpq8bZYxU9Bf5CZay0kiOnuLu10Z4NilPbr5ridSWnUnQTElnuuH73U2e+W6qt9fRyGOopaqIxyRO7i08V0mPlV3x1XPwK+dcoPiUKIikmAREQBERAEREARd9soqy43CGgt9JPV1dTII4KenjMkkrzwDWtGpJPcFvfsSbIf3O1lHj3NWlilukZbLbbE4h7KR3MSVHY6QcwwahvM6ng2PkZMKI6szhW5vRFtbKmyxRwZK4gx9mlZOtrbhZqh1otVSC00cfVOcKh44ESnQbo+COJ4nzdLlNJmd/JtiH9EVX+C5QtqJs++d0pyl9DbfBQ0SCIisyOEREAUxGzH6NeX3yStf1SJQ7qYjZj9GvL75JWv6pEqfa3KPmSsXmy+kRFSkw47VqT0kWzxJjS1PzOwXQ9Zf7bBpdaSJvnXCnYOEjR2yxgcubmgAcWtB22PNO3RbKbpVTU4mMoqS0ZB8i3t27dkyS7VNZmLlXb2mtfrNdrFA3Tyh2upmp2j4Z4lzPhc2+dwdopNHJDM+KVjo5I3Fr2OGhaRwII7Cumx8mF0N6JXTg4PRnyiIpBgEREAREQBERAEREAREQBERASU9FxmF91mz8cL1dR1lwwhU+SaF2rjSyavhcfAffGDwjC2Y+Co4+iY+6Nu0HcXW6nnfZnWaRl2kDT1UZ3mmHU8t8uaQO3Tf04aqRzsXMZ1ahe9OvEsaXrBHKIiiG0IiIDpqnllO9w5hpI+ZY1dx4nmsmSgGMg9o0WOKyEw1D4nDzmOLT7F8H/8AzTXbph2rureXk3oXexpJb668CmeF1OCqHBdTwvhMZPXU6KLKaQKnlCq5QqeUKbTc0+ZIgyhnbwVLHSy1dWymp2F0krwxrR2kqumCvbK7D/UM92apmkkjdIGke9afhes9nh613vsns2/bGdCiHd5yfguvr0RrzcuGJQ5vn0Xizts2XlhgtzWV9Oauoe3z5DI5oB7d0AjQftVgZsYJ+59or6B7paGR264O4uiceWp7Qew+xZw0+dUOILbTXaz1Fuqm70VRGWu4cu4jxB0I9S+97Q9lsC3CdVNajJLg1wev1fXX6nK4e2MmnIVk5txb4r6fTwNWqrtVBUL2MR0U1tutRQVLd2Wnkcx3joefqPNePUFfIVv1zcJLRrgz6lRpOCnHkyiqAqGcKunVHOFLrmTowKCdqpJwq+cKjmCn1zNygUEwVJMFXzNVJM1T65nu4ZL2QcVy2HNOOzyykUN7b1D2E8GygEsd69dW/rrb1rteK0DwNM+kx5ZaqM6OhuVPI31iRpW/bSC0HwXe+zt7njyg/wDF/ufMvbPFjVmQsj/kuPp/xo1g26sB9TV0+PrfCAyoLaa5Brfhgfe5D6wNwnwb3rWuUKR3HNgoMUYSrrBcot+lr4TG8dre0OHiCAR4gKPTGdmrMO4nrrHcGblTQVDoJBpzLTpqPAjQjwIUba+N2Vvax5S/f/pe+yO0feMZ4838UOXl/wA5foeLIOK6XrvkXTIq+LOv3Doeupy7nrqeFuixuHU4L4cPBdhC+XrYmebh1rbbo0qR7MP4qr3NduTVdPEx2p0JYx5I7v5wfOPBalEKQHY4whJg/Iu1xVMRirboXXCqaRoWmTTcB7iI2xgjvBVls6Llbr4HLe198atn9m+c2l+nH/RlZERXx8sCIiAIiIAiIgCIiAKxdp30bMwvknc/qkqvo8lamd9mr8SZL4vw7amNkr7tYK6ipGPduh0stO9jASeQ3nDivYd5eZ4+RDQiuKvwDjmhrpaOswbf4aiB5ZLG+2TBzHA6EEbq6fuLxj+Kd8+jZvsrrlOGnMrNGeGi9z7i8Y/infPo2b7KfcXjH8U759GzfZTfj4jRnhovc+4vGP4p3z6Nm+yu+25f47uFfDRUWDL/AD1NRII4o2W2XVzidAPeo7I6cxoyWXZi9GzL35J2v6pEr6PJWvkrY6zDGT2FMN3EN8ss1ioqGo3SCOsigZG7QjmNWlXQVyMu8yzjyQHJEHJF4ehERAcHkVC1md/KTiH9LVX+M5TSnuUQ+euWWP7Bm9iK33DCN43/AHTnlilhopJIp43SOcySN4bo5pB119h0IIFpsqSU5asi5KeiMbIvc+4vGP4p3z6Nm+yn3F4x/FO+fRs32Vd78PEi6M8NF7n3F4x/FO+fRs32U+4vGP4p3z6Nm+ym/HxGjPDUmnRaeifSfpes/eCjnGCsZEgDCV8JPIe5s32VJr0fGDb/AII2Y7RbMS0MlBcKqeetNJM3dkhZI/zA8fBcWgO0PEb2hAIIVdtOcexS16m7GT3zOKIioScEREAREQEXfSaemBf/AIpRfVo1gFbS9Jpl5jR+0lV4mpMN3KttV4oqbyaqpKV8zN6OIRuY4tB3XAt10PYQVrt9xeMfxTvn0bN9ldRi2R7CHHoitsT32eGi9z7i8Y/infPo2b7KfcXjH8U759GzfZW/fj4mOjPDRe59xeMfxTvn0bN9lPuLxj+Kd8+jZvspvx8RozbbocP4yY8+KUP78y3vHJaZdEtgTFVgosX4kv1lrLbR3MUtNReVwuifUGMyl7mtcAd0bzRryJJHYVucOS5vPaeRLT6fsT6FpWgiIohtC6aiKKogfDLG2SKRpa9j2gtc0jQgg8wQu5EBortgbGE8c9Vi/JykMsLtZavDYd50Z5l1KTzHb1R4j4JOoYNLK6lqaKtmo6ynlp6mnkMc0MzCx8bwdC1zTxBB4EFTeLFW0Bs+ZaZvxOnxHaPJrsG7sd4oCIqpunIOOhbIB3PB07NFaY20nBbtvFePUjWY6fGJEmi2czn2Is0cLSTVmEJqbF1ubqWtpyKesaPGF50d+o9xPcFrvivDWIsL3H3PxLYblZ6rj94uFI+B507g8AnmFcV5FVi1g9SJKEo80eWiItxiEREARXDgHAeNMb1wpMJYWu16k3g1xoqR8jI9fw3gbrB4uIC2dyR2DsV3WSGvzNvcNhpODnW63ubUVjx2tdJxij9Y6z1LRbk1VL45Gca5S5I1dy6wbifHmKqfDmErNU3S5VJ8yGBuu6O173Hgxo14ucQB3qSTYw2aLNk3a/du9Pp7rjCri3ZqxjdYqFhHGKDUa8eTnkAu5aAag5Syjy0wTljhz3EwVYqa2QPIM8jQXzVLh8KWR2rnnidNToNdAAOCu8c1R5efK5bseEf3JlVChxfM0r6Y7+LmA/jdd+5AtElIj0rOAsT4sy0w7esOWqqubLDWzmugpITLLHHKxgEm6OJa0x6HQHTeBPAErQr7i8Y/infPo2b7Ks9nTj7ulr4/uR7k99nhovc+4vGP4p3z6Nm+yn3F4x/FO+fRs32VN34+Jq0Z4aL3PuLxj+Kd8+jZvsp9xeMfxTvn0bN9lN+PiNGZh6Mv0wLB8Urfq0ilEHNRx9GXl3jNu0hTYnq8O3GhtVnoqnymqrKV8LC+SMxsjaXAbziX66DkAT3ayODmuf2nJO/h4EzGWkDlERQCQEREAKx1nvktl7m5axTYwsbJamFhZS3KnPVVdNz97IObdSTuuDm68dNVkThoi9jKUXrF6M8aTWjI4s7th3MbDD5a7AtXT4ttzdXCHhTVrB3GNx3H6Dta7U/gjktbcU4ev2Gro624hstwtNYz31PXUr4JB+q8Aqa/2rz8RWKy3+3Ot9+s9BdKR/vqeupmTxu9bXghWVW1LI8JrUjyx4vlwITkUreLNlTIXEEzpqjL+ko5XHUPttTNSBvqZG8M/wDCrHuewnkrVkmCuxVQ6kECnuMR04cvvkLufNTI7UofNNGp40yNxFI1BsEZOxzNe7EONZQDxY+updHevSmB/arnwxsZZCWmRslRhyvuz28jcLnMRr3lsZY0+ojTwXr2nSuWp4saZGHQ0tTW1kdJR08tRUTODY4YWF73uPIBo4krYDJDY6zYx1JDV3yhGEbRIQXVF0YfKXNP4FMNH68vf7g8VIvgPL/A+CqfqsI4Ss9mBGjn0dEyOR/5zwN53rJKuX1KJbtWb4VrQ2xxl/kzE2zps95d5O0rZrBbzWXp0e5Peq4B9S4EcWs4aRtPc0DXtLllpce1OGiq5zlOW9J6skpJLRHhZnfybYh/RFV/guULamgzZmjpsrMTVEx0jis1W95010AheSoX1c7J5T9CJldAiIrgihERAFMRsx+jXl98krX9UiUO6mI2ZWubs35ftcCCMJ2wEHmD5JEqfa3dj5krF5svpERUpMCIiA45Ba+7VeyngzNp01+tLo8O4qeC418MWsNa7/8AIjGmp7N9ujuPHe0AWwfYuPUVnXZOuW9B6MxlFSWjId87coMf5UXryDGVilponu3aevh++UlT/u5RwJ/JOjh2gKxlNpfbXbL1aprXeLfS19DUt3J6aqhbLFK3uc1wII9a1mzp2Hct8TyT1+C66qwjXyHeEMbfKaIn/duIczU/gv0HY3sVxRtSL4WrT6kWeM13SORFn/MzY3ztwnJJJQ2SmxLRM1IqLRUh79OzWF+7IT4Na71rCeJsOYhw5WGkxDYbnaagHQw19HJA8Hu3XgFWULqrO7LUjyjKPNHmIiLaYhERAERVVmtlyu9a2jtVvqq6pf72GlgdK93qa0ErzVApUWZsvNlTPPFr43Q4IqLRTSc6m9SNowzxMb/vp9jCtiMqNgO00zmVeY+MZq5w0JoLNH1MYPcZpAXOB8GMPj3RbMyivnL9OJsjVOXJGjljtdzvV2gtdnt9VcK6pduQUtLC6WWV3c1rQST6lths6bDmJr9LBeM1Kt1gtvB4tVK9r66cdz3cWQjl+E7mCGnit1sq8sMAZb27yTBWFrfag5obJPFHvTzD8uZ2r3+0lXh2KsyNpzlwrWn7kmGMlxkeBl3g3DGA8LwYdwlZaW1W2n97DTt03naAF73HVz3HQaucST2le+U14rlVbbb1ZI5BERD0IiIDhWtja1kvNdC3UEaSgDl+UroGui4e0OYWuGoPMLnvaXYGPt3Z08S7hrxi+qfR/wAm7HvlTYpxMYuAK63t7ld16wyJHGWhe1hPExu977D2K36mz3KBxD6SU/mt3h+zVfl3a/sTtvZVzhZRKUekoptP1XLyZ1FGdTYtd7T6M8uTTsXS8HRetFablM7dZRTA/lNLR85XsWbB7nPbLcXgAceqjPE+s/5fOmyPZDbW0rlXVRJL80k0l6v/AEb55+PTHVy/2zycE4eNzrBVVLD5LEeRH/SO7vV3/MsjMaGt0A4DkvinhjghEUTAxjRoGtGgAXZ7V+m/ZX2ao2BgqiHGb4yl4v8AhdDls3MnlWbz5Lkj6REXUEMwjtMWQUt5pb5EzRlY3qpiP9Y0eaT628P1ViecrZ7NmwnEOB6yiiZvVLG9bT6c99vEAesat9q1dmJBIPZz1Xx/2u2f7rtF2xXwz4+vX+T6j7JZaycLs2/ihw9On8eh0TFUkqqZSqaVc/WdfGJSzBUkwVZIqWYKbWzcolFMFSzNVdKO1UsoU2uR7unv5I2Z97zcsFDGCQ2tZM8j8CI9Y79jSPat4QNAPBYD2M8GPpqWqxnXRFrqppp6EOH82D57/a4Bo/Nd3rPnHVfSPZ/GlTib0ucuPp0PkPtdnRydobkHwgtPXr/Hoc9q1j278u5HdVmDa4S4Brae6tYOQ5RzH9jD+p4rZvsVLdaCkudtnoK6BlRS1UbopopBq17SNCCPUrXKx45FTg/6ym2XtCeBlRvj05rxXVEZ710SLK+0nk9dcu75LW0UMtThyok/0aq98YCf5qXuI7DycNO3UDE8hXITqnVNwmtGj7Vh5dOZTG6mWqf90f1Op663Lteut69TJW6dTgvly+1krIPJTE2ZdxjqRG+3WJj/AL9cpYzo8A8Wwg+/d2dw7TroDIqhKyW7Basi5eXRiVO26W7FFZsj5VzZiY9jrrjTuOH7RI2Wue4ebO8cWwDv15u7m68iQt92Naxoa0aADgO5eHl/hWzYMwpS4ew/S+TUdK3QAcXPceb3n4TieJP/ALaBe7w5LpcTGVFenV8z49tva0tpZPacorhFfTx82fSIilFMEREAREQBERAEREAREQBERAEREAREQBERAEREAREQBERAEREAREQBERAEREAREQBERAEREAREQBERAEREAREQBERAEREAVHeLbbrtROorpQUtdTP9/BUwtljd62uBBVYiAxbiTZzyNvz3Pr8srCxzuZoqc0mv/BLFatZsb7Pk0gdHgypgAGm5Heasg+PnSk/tWe+XamvitqyLlyk/1MXCL6GBqLY52eqdxMmCZ6nXTQTXms0b/VlH7VeGGMgMlsPvY+2ZaYc32e9kqqFtU9viHS7xB8VklPavJX2y5yf6hQiuSOqjp6elpWU9LBHBFGN1kcTA1rB3ADgF3Ii1mQREQBERAEREAREQBERAEREAREQBERAEREAREQBERAEREAREQGO9rG7ssmzPjq4OfuEYeq4Y3a6aPlidEw/1ntUQKkc6V7GsViyBpcIRSjyvFNexro9ePk8BEr3f8QQD2lRxq+2XDSpy8WQcl6z0CIitCOEREAU0mWNvdact8PWp7S11DaqWnIJ1ILImt4/Mofco7F91GamG8OdXvC63ilpHN01818rWn2aEqZ8dipdrS7kfMl4q5s5REVOSwiIgCIiAIiIAqevpKWuo30tZTQ1EEg0fFNGHscO4g8CqhEBj3EOR2Tt8kdJcss8LySPOrpI7XFE9x4c3MAJ5dpVo12yPs9Vbi5+X0cbt3QGK61senjoJtNePaFm/Vc+1bFfbHlJ/qYuEXzRr/wDwMdn/APFau+mKn7aqrfsfbPlKGufgZ9S9rt4Omu9YdfAgShpHrCztomiy95u/O/1Mezh4GM8PbPmSdkLXUOWWG3Obpo6qoW1JGnbrLvcfFX/ZrVbLRRiktNtpKCnHKGlgbEwfqtACrPauVqc5S7z1M0kuQREXh6EREAREQBERAEREAREQBNB3IiNJg40HcFyiLxJLkAiIvQEREB8nuPate9obBctlvb79Qwk2+ufvSho4QynmPAO5jx1HcthNFTXahpLlb5aGuhZNTzNLZI3jUOCqNs7Kr2ljOqXCS4p+D/gtNj7Us2dlK2PFPg14r+fA01kK6JVlTNDJ+7WqeWuw5G6vodS7qG8ZoB3AfDHq4+HasWVccsEzoZ43xyMOjmPaQ5p7iDyXyXL2bk4Vm5dDT9n5M+ybP2li51anRNP915roUsip5Qql6+7Xa7jdaxtLbKGermceDIYi8+3TkPFYVRlNpRWrLCc4Vxcpy0SPLlar2yQy1rcc3xs07HQWamePKZ+RkPPq2flHtPYDr3A3xlpkNXVM8ddjGQU8A0d5DC/V7/B7xwaPBup8Qs92i30Vrt8VDb6aOmp4W7sccbdGtHgF22xvZ22clblLSPh1fn4I4b2g9raq4OjClrJ/5LkvLxf2Pq3UdPQUMNHSQshgp4xHFGwaNY0DQADuAVUiLvEkloj5g229WERFkCludHSXGglo66ljqaedhZLFKwOY9p5gg8CFgbMzZXwteaiStwpc5rHNIS40zmdfT69zQSHM4+JA7AFsBwC58Vpux6rlpOOpNwto5WFLeom4/s/NcjSyv2Ucx4qgtgr7DPHzDhUyt19YMfA/Ou+y7JePampaLnebHRQ66OfG+WZ48Q3caD/WC3M4EakJwA4KItl4yfJ/qXb9sNquOm8vPT+owdlnsv4Bw5UR1l7dNiOrj0IFU0Mpg4dvVDXX1Pc4eCzZSwRU0LYIImRRRtDWMY0Na0DkAByC7Rw4LlTKqa6lpBaFDl5+Vlz375uT+v8ApckcoiLaRQiIgCIiAIiIAiIgCIiAIiIAiIgCIiAIiIAiIgCIiAIiIAiIgCIiAIiIAiIgCIiAIiIAiIgCIiAIiIAiIgCIiAIiIAiIgCIiAIiIAiIgCIiAIiIAiIgCIiAIiIAiIgCIiAIiIAi4arczfxEMIZVYkxRq0Gz2mprGa9r2ROc0e1wA9qJNvRHj4FCzNTLZ2NnYPGOsP+7rZOqNv90I+t6zXQx6a+/1+B77wV4qEGeWWed800j5JZHFz3vcS5zidSSTzJKzBkvtP5wZbtipLfiN13tcWgFtvINTE1vLdY4kSMHcGuA8Fa2bKkl8Ev1I0cla/EiV/RFqRlPt54Cu4ipceWG44bqTwfU048spfWd0CRvqDHetbDZdZqZc47jjOEsaWa6SvGop4atoqAPyoXaSN9rQq+zHtr70TfGyMuTLxREWozCIiAIiIDjsVJd6+itNpqbncaqGkoqOF89TUTPDI4Y2guc9zjwAABJKtzNfM3A2W1k91Ma4io7VG4ExRSO3p6jTsjibq9/sHDt0Uem2NtT37N7rcM4ehnsuD2yAup3OHlFwLTqHTlp0DQdCIwSNQCS4gaScbEsufDl4mqy2MF9SztsvNyTOLOmsv9KZGWShb5FZonjQinaSescOxz3Fzj2gFrfgrFCIumrhGEVGPJFe229WERFmeBERAbC9GNhJ+JNqa33N8e9S4bop7lLqPNLt3qYxr378ocPzD3KTwDitV+ioy8dhrJWsxrXU+5W4sqQ6Aubo4UkO81nPlvPMrvEbh7ltQOS5nPt7S96dOBYUR3YHKIihm4IiIAiIgCIiAIiIAiIgCIiAIiIAiIgCIiAIiIAiIgCIiAIiIAiIgCIiAIiIAiIgCIiA+QNeYXm3qwWW7gC52qjq+wGeBryPUSOC9ILkrCdcZrSS1R7CcoPWL0f0LXZl3giN5eMMW0k6HR1O1w4eB4L3bdbqG304goaOCmiHJkMbWD5gNFV8e9cFa68emt6wgl5JI22ZN9i0sm35ts+kRFvNIREQBERAEREAREQBERAEREAREQBERAEREAREQBERAEREAREQBERAEREAREQBERAEREAREQBERAEREAREQBERAEREAREQBERAEREAREQBERAEREAREQBERAEREAREQBERAEREAREQBERAEREAREQBERAEREBwQtf+kvxGLBsm3qlbL1c18q6a3QnXQnWQSvHtjhkHq1WwA5LSTpiMRBtuwXhKJ4JllqbjUM15boZHGdPHfm+ZSMOG/fFf3ga7XpBmjKIi6orQgJB1B0IRE0BfWDc6c2cKsZHYsw8RUsMem5Tur3ywt07o3lzP2LJuHNtfPi2NaKy8Wi8bvbXWqNpPr6nq1rwi0yx6p96K/QyU5Lkzbe1dIBmPGB7o4LwvUHQ6+T+UQ6nXh76R/Yq3/nBMY/8A8fWP+2TLTtFp9wx/ymfbWeJtxdtv/MWWIi2YLwzTP099UGomGuvcHs7FjnHW13nviaB9OMWss1O/30dopGU7vZJoZB7HBYNRZxw6I8oI8ds31Ku93O5Xm5y3K73GruFZOd6Wpq53SyyHvc5xJPtVIiKTpoawiIgCIiAK9tnfLi55rZu2jBlt32Mq5d+uqWt18lpm8ZZT2cG8BrzcWjtVnUNLU1tdDR0cElRU1EjYoYYmFz5HuOjWtA4kkkAAKULYOyJjyey6dWXqKN+K78xklycNHeSMHFlM0/k66uI5uPaGtKh5uSqK/q+Rtqr35fQzZhu02+wYeobHaqZlNQW2mjpaWBnKONjQ1rR6gAq9EXMt6liEREAREQBERAEREAREQBERAEREAREQBERAEREAREQBERAEREAREQBERAEREAREQBERAEREAREQBERAEREAREQBERAEREAREQBERAEREAREQBERAEREAREQBERAEREAREQBERAEREAREQBERAEREAREQBERAEREAREQBERAEREAREQBERAEREAREQBERAEREAREQBERAEREAREQBERAEREAREQBERAEREAREQBERAEREBxzUZHSi4i929qyst7Zd+OwWyloAAeAJaZ3e3WfQ+rTsUm/IrWDbC2R6PNjFNRjbDF9ZZ8R1ELG1MNVEX0ta5jQxri5vnRu3Q0FwDgQ0eaDqTMwLa6rt6fgab4ylDREbqLIGcOSWZ2WMzzi3ClbT0jXaNuMDevpH9x61mrRr3O0Pgsfro4zjJaxeqIDTXBhERZngREQBERAEREAREQBERAFUWigrrrdKe22yjqKysq5WxU9NTxGSSZ7joGtaNSSTyAWT8gNnXM7NqphnslmdQWV7vvl6uLTFTBvbucN6U9mjAePMjmpB9mLZywJkxQipoIfdbEcke7UXqqjHW8RoWwt4iFh48AST8JztBpCyc6upaLi/A210yn5GPNhLZcp8toYccY9poajF0rdaSkJEkdoaR2EcHTEc3Dg0cB2k7TrhB4LnbbZ2y3pviT4xUVojlERYGQREQBERAEREAREQBERAEREAREQBERAEREAREQBERAEREAREQBERAEREAREQBERAEREAREQBERAEREAREQBERAEREAREQBERAEREAREQBERAEREAREQBERAEREAREQBERAEREAREQBERAEREAREQBERAEREAREQBERAEREAREQBERAEREAREQBERAEREAREQBERAEREAREQBERAEREAREQBERAEREAREQBERAEREAREQBERAdU8cc8L4pmNex7S1zHDUOB4EEdoWGc1NlTJTHT5aiqwoyzV0pJNZZH+SP1PMlgBiJJ46lhKzV7VzzCyjZOD1i9DFxT5o0PzB6P27ROkmwRj6kqm82U14pXROHgZY94H+oFhfGeybnzhx7i/A01zhbymtdTFUh3qY13WfO0KVZcn1KbXtK+PPRmp48GQsYmwdi7DhIxDha9Wkt5ivt0sGnHT4bR2rxVODp4LwLzgfBd3eX3bCFiriTqTVW2GUk6afCaexSY7W/ND7mt4vgyF1FL/AFeRWTFTIHSZVYQaQNB1dlgjHzNaAvMl2b8inzOe/LKwhx84hsLmgeoA6D1BbFtav8rMfdpeJEmilyo9nfI+lD+qyww47e0162jEmmndva6exexbMncpbaWmhyywhA4N3d9tjpt8jnxduankOZR7Wh0ix7tLxIeqKlqaypZTUdPLUTSHRkcTC9zj4AcSsgYMyEzmxU5nuNlvf3sk95NVUhpIneqSbcb+1S32q1Wu2QGG2W6koojzZTwNjb2nk0DvPzlV2i0y2tP/ABiZrFXVkeGWuwVmFdJI5sZ4jtNgpjoXw029W1I7xoN2MesPPqWy2TuyPk1gKWKtkskmI7lFoRVXtwna13e2EARjjy1aSNBxWePWhUO3Nvs4OWi+htjTCPQ+Io2QxNjjY1jGgNa1o0AA5ABdiIoptCIiAIiIAiIgCIiAIiIAiIgCIiAIiIAiIgCIiAIiIAiIgCIiAIiIAiIgP//Z;" vertex="1" parent="1">
          <mxGeometry x="391.81" y="580.22" width="136.35" height="32.61" as="geometry" />
        </mxCell>
        <mxCell id="LfOJHmE77x6VwFVhjRun-20" value="" style="strokeColor=#dddddd;shadow=1;strokeWidth=1;rounded=1;absoluteArcSize=1;arcSize=2;" vertex="1" parent="1">
          <mxGeometry x="140" y="600" width="120" height="60" as="geometry" />
        </mxCell>
        <mxCell id="LfOJHmE77x6VwFVhjRun-21" value="Cloud&#xa;Storage" style="editableCssRules=.*;html=1;fontColor=#999999;shape=image;verticalLabelPosition=middle;verticalAlign=middle;labelPosition=right;align=left;spacingLeft=20;part=1;points=[];imageAspect=0;image=data:image/svg+xml,PHN2ZyB4bWxucz0iaHR0cDovL3d3dy53My5vcmcvMjAwMC9zdmciIHhtbG5zOnY9Imh0dHBzOi8vdmVjdGEuaW8vbmFubyIgd2lkdGg9IjIwIiBoZWlnaHQ9IjE2IiB2aWV3Qm94PSIwIDAgMjAgMTYiPiYjeGE7CTxzdHlsZSB0eXBlPSJ0ZXh0L2NzcyI+JiN4YTsJLnN0MHtmaWxsOiM0Mjg1ZjQ7fSYjeGE7CS5zdDF7ZmlsbDojNjY5ZGY2O30mI3hhOwkuc3Qye2ZpbGw6I2FlY2JmYTt9JiN4YTsJLnN0M3tmaWxsOiNmZmY7fSYjeGE7CTwvc3R5bGU+JiN4YTsJPHBhdGggY2xhc3M9InN0MiIgZD0iTTAgMGgyMHY3SDB6Ii8+JiN4YTsJPHBhdGggY2xhc3M9InN0MSIgZD0iTTE4IDBoMnY3aC0yeiIvPiYjeGE7CTxwYXRoIGNsYXNzPSJzdDAiIGQ9Ik0xOCA3bDItN2gtMnoiLz4mI3hhOwk8cGF0aCBjbGFzcz0ic3QxIiBkPSJNMCAwaDJ2N0gweiIvPiYjeGE7CTxnIGNsYXNzPSJzdDMiPiYjeGE7CQk8cGF0aCBkPSJNNCAzaDZ2MUg0eiIvPiYjeGE7CQk8cmVjdCB4PSIxMyIgeT0iMiIgd2lkdGg9IjMiIGhlaWdodD0iMyIgcng9IjEuNSIvPiYjeGE7CTwvZz4mI3hhOwk8cGF0aCBjbGFzcz0ic3QyIiBkPSJNMCA5aDIwdjdIMHoiLz4mI3hhOwk8cGF0aCBjbGFzcz0ic3QxIiBkPSJNMTggOWgydjdoLTJ6Ii8+JiN4YTsJPHBhdGggY2xhc3M9InN0MCIgZD0iTTE4IDE2bDItN2gtMnoiLz4mI3hhOwk8cGF0aCBjbGFzcz0ic3QxIiBkPSJNMCA5aDJ2N0gweiIvPiYjeGE7CTxnIGNsYXNzPSJzdDMiPiYjeGE7CQk8cGF0aCBkPSJNNCAxMmg2djFINHoiLz4mI3hhOwkJPHJlY3QgeD0iMTMiIHk9IjExIiB3aWR0aD0iMyIgaGVpZ2h0PSIzIiByeD0iMS41Ii8+JiN4YTsJPC9nPiYjeGE7PC9zdmc+;" vertex="1" parent="LfOJHmE77x6VwFVhjRun-20">
          <mxGeometry width="30" height="24" relative="1" as="geometry">
            <mxPoint x="15" y="18" as="offset" />
          </mxGeometry>
        </mxCell>
        <mxCell id="LfOJHmE77x6VwFVhjRun-23" value="" style="edgeStyle=orthogonalEdgeStyle;fontSize=12;html=1;endArrow=blockThin;endFill=1;rounded=0;strokeWidth=2;endSize=4;startSize=4;dashed=0;strokeColor=#4284F3;" edge="1" parent="1">
          <mxGeometry width="100" relative="1" as="geometry">
            <mxPoint x="260" y="629.67" as="sourcePoint" />
            <mxPoint x="360" y="629.67" as="targetPoint" />
          </mxGeometry>
        </mxCell>
        <mxCell id="LfOJHmE77x6VwFVhjRun-24" value="&lt;div&gt;&lt;br&gt;&lt;/div&gt;&lt;div style=&quot;text-align: center;&quot;&gt;&lt;span style=&quot;background-color: transparent; color: light-dark(rgb(158, 158, 158), rgb(101, 101, 101));&quot;&gt;Raw Data&lt;/span&gt;&lt;/div&gt;" style="sketch=0;points=[[0,0,0],[0.25,0,0],[0.5,0,0],[0.75,0,0],[1,0,0],[1,0.25,0],[1,0.5,0],[1,0.75,0],[1,1,0],[0.75,1,0],[0.5,1,0],[0.25,1,0],[0,1,0],[0,0.75,0],[0,0.5,0],[0,0.25,0]];rounded=1;absoluteArcSize=1;arcSize=2;html=1;strokeColor=none;gradientColor=none;shadow=0;dashed=0;fontSize=12;fontColor=#9E9E9E;align=left;verticalAlign=top;spacing=10;spacingTop=-4;whiteSpace=wrap;fillColor=#FFF8E1;" vertex="1" parent="1">
          <mxGeometry x="-80" y="593.96" width="120" height="70" as="geometry" />
        </mxCell>
        <mxCell id="LfOJHmE77x6VwFVhjRun-25" value="" style="edgeStyle=orthogonalEdgeStyle;fontSize=12;html=1;endArrow=blockThin;endFill=1;rounded=0;strokeWidth=2;endSize=4;startSize=4;dashed=0;strokeColor=#4284F3;" edge="1" parent="1">
          <mxGeometry width="100" relative="1" as="geometry">
            <mxPoint x="40" y="629.66" as="sourcePoint" />
            <mxPoint x="140" y="629.66" as="targetPoint" />
          </mxGeometry>
        </mxCell>
        <mxCell id="LfOJHmE77x6VwFVhjRun-26" value="ETL" style="text;html=1;align=center;verticalAlign=middle;whiteSpace=wrap;rounded=0;" vertex="1" parent="1">
          <mxGeometry x="350" y="540" width="60" height="30" as="geometry" />
        </mxCell>
      </root>
    </mxGraphModel>
  </diagram>
</mxfile>
